<?xml version="1.0" encoding="UTF-8" standalone="no"?>
<!-- Created with Inkscape (http://www.inkscape.org/) -->

<svg
   xmlns:dc="http://purl.org/dc/elements/1.1/"
   xmlns:cc="http://creativecommons.org/ns#"
   xmlns:rdf="http://www.w3.org/1999/02/22-rdf-syntax-ns#"
   xmlns:svg="http://www.w3.org/2000/svg"
   xmlns="http://www.w3.org/2000/svg"
   xmlns:sodipodi="http://sodipodi.sourceforge.net/DTD/sodipodi-0.dtd"
   xmlns:inkscape="http://www.inkscape.org/namespaces/inkscape"
   width="772.04999"
   height="262.20001"
   id="svg2"
   version="1.1"
   inkscape:version="0.48.1 r9760"
   sodipodi:docname="tail_description.svg">
  <defs
     id="defs4" />
  <sodipodi:namedview
     id="base"
     pagecolor="#ffffff"
     bordercolor="#666666"
     borderopacity="1.0"
     inkscape:pageopacity="0.0"
     inkscape:pageshadow="2"
     inkscape:zoom="1.4142136"
     inkscape:cx="415.06703"
     inkscape:cy="137.1541"
     inkscape:document-units="px"
     inkscape:current-layer="layer1"
     showgrid="false"
     inkscape:object-paths="false"
     inkscape:snap-nodes="false"
     inkscape:window-width="1600"
     inkscape:window-height="843"
     inkscape:window-x="0"
     inkscape:window-y="1046"
     inkscape:window-maximized="1"
     width="672.05px" />
  <metadata
     id="metadata7">
    <rdf:RDF>
      <cc:Work
         rdf:about="">
        <dc:format>image/svg+xml</dc:format>
        <dc:type
           rdf:resource="http://purl.org/dc/dcmitype/StillImage" />
        <dc:title />
      </cc:Work>
    </rdf:RDF>
  </metadata>
  <g
     inkscape:label="Layer 1"
     inkscape:groupmode="layer"
     id="layer1"
     transform="translate(0,-790.16198)"
     style="display:inline">
    <path
       style="fill:none;stroke:#000000;stroke-width:0.99999994px;stroke-linecap:butt;stroke-linejoin:miter;stroke-opacity:1"
       d="m 414.68544,928.43251 176.99514,49.0792"
       id="path3795"
       inkscape:connector-curvature="0"
       sodipodi:nodetypes="cc" />
    <path
       style="fill:none;stroke:#000000;stroke-width:0.99999994px;stroke-linecap:butt;stroke-linejoin:miter;stroke-opacity:1"
       d="m 682.88984,904.90324 -59.2268,75.58431"
       id="path3797"
       inkscape:connector-curvature="0"
       sodipodi:nodetypes="cc" />
    <path
       sodipodi:type="arc"
       style="fill:none;stroke:#000000;stroke-width:0.29775017;stroke-miterlimit:4;stroke-opacity:1;stroke-dasharray:none"
       id="path3799"
       sodipodi:cx="116.14229"
       sodipodi:cy="73.559792"
       sodipodi:rx="3.0052037"
       sodipodi:ry="2.9168155"
       d="m 119.14749,73.559792 c 0,1.610912 -1.34547,2.916815 -3.0052,2.916815 -1.65973,0 -3.00521,-1.305903 -3.00521,-2.916815 0,-1.610913 1.34548,-2.916816 3.00521,-2.916816 1.65973,0 3.0052,1.305903 3.0052,2.916816 z"
       transform="matrix(3.3503738,0,0,3.3666864,144.51825,689.09112)" />
    <path
       sodipodi:type="arc"
       style="fill:none;stroke:#000000;stroke-width:0.29775017;stroke-miterlimit:4;stroke-opacity:1;stroke-dasharray:none;display:inline"
       id="path3799-1"
       sodipodi:cx="116.14229"
       sodipodi:cy="73.559792"
       sodipodi:rx="3.0052037"
       sodipodi:ry="2.9168155"
       d="m 119.14749,73.559792 c 0,1.610912 -1.34547,2.916815 -3.0052,2.916815 -1.65973,0 -3.00521,-1.305903 -3.00521,-2.916815 0,-1.610913 1.34548,-2.916816 3.00521,-2.916816 1.65973,0 3.0052,1.305903 3.0052,2.916816 z"
       transform="matrix(3.3503738,0,0,3.3666864,184.67642,688.28001)" />
    <path
       style="fill:none;stroke:#000000;stroke-width:0.99999994;stroke-linecap:butt;stroke-linejoin:miter;stroke-miterlimit:4;stroke-opacity:1;stroke-dasharray:0.99999997, 0.99999997;stroke-dashoffset:0"
       d="m 572.72799,935.25602 51.38199,46.24351"
       id="path3819"
       inkscape:connector-curvature="0"
       sodipodi:nodetypes="cc" />
    <path
       style="fill:none;stroke:#000000;stroke-width:0.99999994;stroke-linecap:butt;stroke-linejoin:miter;stroke-miterlimit:4;stroke-opacity:1;stroke-dasharray:0.99999997, 0.99999997;stroke-dashoffset:0;display:inline"
       d="m 534.52669,936.29749 88.6795,43.52218"
       id="path3819-3"
       inkscape:connector-curvature="0"
       sodipodi:nodetypes="cc" />
    <path
       style="fill:none;stroke:#000000;stroke-width:0.99999994px;stroke-linecap:butt;stroke-linejoin:miter;stroke-opacity:1"
       d="m 411.8939,933.02563 4.87619,-8.8738"
       id="path3013"
       inkscape:connector-curvature="0" />
    <path
       style="fill:none;stroke:#000000;stroke-width:0.99999994px;stroke-linecap:butt;stroke-linejoin:miter;stroke-opacity:1"
       d="m 688.16585,909.53004 -9.75237,-7.09901"
       id="path3037"
       inkscape:connector-curvature="0" />
    <path
       style="fill:none;stroke:#000000;stroke-width:0.99999994px;stroke-linecap:butt;stroke-linejoin:miter;stroke-opacity:1"
       d="m 592.52598,972.97749 -2.65974,8.87367"
       id="path3045"
       inkscape:connector-curvature="0" />
    <path
       style="fill:none;stroke:#000000;stroke-width:0.99999994px;stroke-linecap:butt;stroke-linejoin:miter;stroke-opacity:1"
       d="m 618.84631,976.08321 7.53593,7.98644"
       id="path3047"
       inkscape:connector-curvature="0" />
    <path
       style="fill:none;stroke:#000000;stroke-width:1.5;stroke-linecap:butt;stroke-linejoin:miter;stroke-opacity:1;display:inline;opacity:0.50000000000000000;stroke-miterlimit:4;stroke-dasharray:none"
       d="m 51.74212,909.6781 c 1.73204,-1.1461 2.28314,-3.0628 3.54281,-4.3275 0,-0.3161 -0.22267,-0.7249 0,-0.9485 0.22267,-0.2235 0.66307,0.1414 0.94474,0 0.39834,-0.1999 0.62983,-0.6323 0.94475,-0.9485 0.31491,-0.3161 0.80391,-0.5243 0.94474,-0.9485 0.19919,-0.5998 -0.19915,-1.2971 0,-1.8969 6.60959,-4.9332 2.3489,-3.4493 3.77899,-5.691 0.39061,-0.5882 1.49889,-0.3603 1.8895,-0.9485 -0.0244,-1.8478 0.44779,-2.0633 1.88949,-2.8455 0.49792,-0.4999 0.72207,-1.2263 0.94475,-1.897 0.69292,-0.8239 0.87061,-1.0815 1.88949,-0.9485 0.31491,-0.6323 0.35884,-1.5048 0.94475,-1.897 0.52405,-0.3507 1.44413,0.4472 1.88949,0 0.44536,-0.4471 -0.34937,-1.3708 0,-1.897 1.2833,-1.9325 4.00749,-0.2294 4.72373,-0.9485 0.44536,-0.4471 -0.28167,-1.3314 0,-1.8969 0.14082,-0.2828 0.72207,0.2235 0.94475,0 0.22267,-0.2236 -0.28167,-0.8071 0,-0.9485 0.56333,-0.2828 1.44413,0.4471 1.88949,0 0.44536,-0.4472 -0.28167,-1.3315 0,-1.897 0.14082,-0.2828 0.72207,0.2235 0.94475,0 0.22267,-0.2236 -0.22267,-0.725 0,-0.9485 0.22267,-0.2236 0.64599,0.1 0.94475,0 0.66803,-0.2236 1.22145,-0.725 1.88949,-0.9485 0.29875,-0.1 0.72206,0.2235 0.94475,0 0.49792,-0.4999 0.44682,-1.3971 0.94474,-1.897 0.33687,-2.33 2.00564,-0.3939 2.83424,-0.9485 0.74112,-0.496 1.17692,-1.3604 1.88949,-1.897 0.56334,-0.4242 1.22146,-0.7249 1.8895,-0.9485 1.75449,-0.5871 0.95107,1.8843 2.83424,-1.897 0.28167,-0.5655 -0.28167,-1.33139 0,-1.89697 0.14082,-0.28278 0.64599,0.1 0.94475,0 0.66803,-0.22355 1.20634,-0.77703 1.88949,-0.94849 0.61103,-0.15337 1.36544,0.35075 1.88949,0 0.58591,-0.39216 0.35884,-1.50484 0.94475,-1.89699 0.52405,-0.35075 1.44413,0.44712 1.88949,0 0.44536,-0.44713 -0.44536,-1.44987 0,-1.89699 0.44536,-0.44713 1.32616,0.28278 1.8895,0 0.28167,-0.14138 -0.22267,-0.72493 0,-0.94849 0.19314,-0.19391 2.45965,0.18803 2.83424,0 0.39834,-0.19998 0.5464,-0.74854 0.94474,-0.9485 0.56334,-0.28279 1.32616,0.28279 1.8895,0 0.39834,-0.19995 0.5464,-0.74853 0.94474,-0.94849 0.37459,-0.18804 2.6411,0.1939 2.83424,0 0.22267,-0.22356 -0.22267,-0.72494 0,-0.9485 0.44536,-0.44712 1.32616,0.28279 1.8895,0 0.39834,-0.19997 0.5464,-0.74853 0.94474,-0.94849 0.52996,-0.26603 3.38725,0.26218 3.77899,0 0.74112,-0.49604 1.14837,-1.40095 1.88949,-1.89699 0.44103,-0.29518 3.98482,0.24729 4.72374,0 3.25674,-1.08989 0.69983,-0.9485 2.83423,-0.9485 0.62984,0 1.25967,0 1.8895,0 0.31491,0 0.68272,0.17537 0.94475,0 0.74112,-0.49604 1.14837,-1.40095 1.88949,-1.89699 0.4114,-0.27536 2.33555,0.25033 2.83424,0 0.39834,-0.19994 0.52224,-0.8071 0.94475,-0.94849 0.89626,-0.29994 1.93797,0.29994 2.83424,0 0.66803,-0.22355 1.22145,-0.72493 1.88949,-0.9485 0.61212,-0.20485 3.95027,0 4.72372,0 0.31492,0 0.68272,0.17537 0.94475,0 0.74112,-0.49604 1.14837,-1.40095 1.88949,-1.89699 0.39484,-0.26427 4.89086,0.26023 5.66848,0 0.4225,-0.14138 0.52225,-0.8071 0.94475,-0.94849 0.59751,-0.19997 1.25966,0 1.88949,0 0.62983,0 1.25966,0 1.88949,0 0.31492,0 0.80392,0.28278 0.94475,0 0.28167,-0.56557 -0.44536,-1.44987 0,-1.89699 0.0621,-0.0624 6.295,0 6.61323,0 0.81869,0 3.23172,0.18315 3.77898,0 0.66803,-0.22355 1.22146,-0.72493 1.8895,-0.9485 0.29874,-0.1 0.62982,0 0.94474,0 0.62985,0 1.25967,0 1.8895,0 2.51932,0 5.03865,0 7.55798,0 2.51933,0 5.03865,0 7.55795,0 0.62985,0 1.25968,0 1.8895,0 0.31492,0 0.68274,0.17538 0.94474,0 0.74112,-0.49604 1.14838,-1.40094 1.8895,-1.89699 0.26214,-0.17537 0.62983,0 0.94474,0 0.62985,0 1.25968,0 1.8895,0 1.88951,0 3.77898,0 5.66848,0 0.62983,0 1.44414,0.44713 1.8895,0 0.44534,-0.44712 -0.28167,-1.33141 0,-1.89698 0.14083,-0.28279 0.62983,0 0.94474,0 0.62983,0 1.25968,0 1.8895,0 3.77898,0 7.55798,0 11.33696,0 3.14915,0 6.29831,0 9.44746,0 0.31491,0 0.62985,0 0.94476,0 0.31491,0 0.72207,-0.22356 0.94474,0 0.22259,0.22355 -0.22259,0.72493 0,0.94849 0.22259,0.22355 0.62982,0 0.94474,0 0.6571,0 4.38208,-0.17151 4.72374,0 0.39833,0.19997 0.5464,0.74854 0.94474,0.94849 0.57368,0.28798 5.09482,-0.28797 5.66847,0 0.39837,0.19998 0.54643,0.74854 0.94477,0.9485 0.56334,0.28279 1.32616,-0.28279 1.88947,0 0.39837,0.19995 0.54643,0.74853 0.94477,0.94849 0.50934,0.2557 4.37013,-0.23664 4.72371,0 0.74112,0.49605 1.14838,1.40095 1.8895,1.89699 0.52407,0.35076 1.32616,-0.28278 1.88951,0 0.39833,0.19998 0.52224,0.80711 0.94473,0.9485 0.59752,0.19997 1.25968,0 1.88951,0 0.31491,0 0.66306,-0.14138 0.94473,0 0.39834,0.19997 0.5464,0.74853 0.94474,0.94849 0.28167,0.14139 0.62985,0 0.94477,0 0.31491,0 0.62982,0 0.94473,0 0.26401,0 4.57592,-0.0742 4.72374,0 0.79668,0.39992 1.14839,1.40095 1.88951,1.89699 0.26213,0.17537 0.62982,0 0.94473,0 0.62983,0 1.32616,-0.28278 1.88951,0 0.28164,0.14141 -0.22259,0.72493 0,0.9485 0.22259,0.22355 0.6827,-0.17537 0.94473,0 0.74112,0.49604 1.14838,1.40095 1.8895,1.89699 0.35692,0.2389 3.42206,-0.2389 3.77898,0 0.74112,0.49604 1.0928,1.49707 1.8895,1.89699 0.80274,0.40297 3.78459,-0.31429 4.72372,0 0.42252,0.1414 0.52224,0.8071 0.94476,0.94849 0.43212,0.1446 3.3586,-0.21102 3.77898,0 0.39834,0.19995 0.5464,0.74854 0.94474,0.9485 0.94476,0.47424 1.8895,-0.9485 2.83424,0 0.44536,0.44712 -0.28167,1.33141 0,1.89699 0.19613,0.39371 2.50447,-0.33108 2.83424,0 0.22259,0.22355 -0.22259,0.72493 0,0.94849 0.22259,0.22355 0.66309,-0.14138 0.94476,0 0.79667,0.39992 1.0928,1.49707 1.88948,1.89699 0.28167,0.14141 0.66309,-0.14138 0.94476,0 0.39834,0.19997 0.5464,0.74853 0.94474,0.94849 0.28167,0.14141 0.72206,-0.22355 0.94473,0 1.95473,1.96247 -2.98705,-0.0767 0.94477,1.89699 0.28167,0.14141 0.66307,-0.14138 0.94474,0 0.39833,0.19997 0.5464,0.74854 0.94473,0.9485 0.28168,0.14138 0.6631,-0.14141 0.94477,0 0.39834,0.19994 0.5464,0.74853 0.94474,0.94849 0.28167,0.14141 0.72206,-0.22355 0.94473,0 0.22259,0.22356 -0.22259,0.72497 0,0.94847 0.44537,0.4472 1.44414,-0.4471 1.88951,0 0.22259,0.2236 -0.22259,0.725 0,0.9485 1.95472,1.9625 -0.0764,-2.99889 1.8895,0.9485 0.14082,0.2828 -0.22259,0.725 0,0.9485 0.22259,0.2236 0.66306,-0.1414 0.94474,0 1.13371,0.5691 1.70055,2.2764 2.83423,2.8455 0.28168,0.1414 0.72207,-0.2236 0.94474,0 0.22259,0.2236 -0.14082,0.6657 0,0.9485 0.56687,1.1382 2.2674,1.7073 2.83427,2.8455 0.14082,0.2828 -0.22259,0.7249 0,0.9485 0.22259,0.2235 0.72207,-0.2236 0.94474,0 0.22259,0.2235 -0.14083,0.6657 0,0.9485 1.96589,3.9474 -0.0652,-1.014 1.8895,0.9485 0.44534,0.4471 -0.28167,1.3314 0,1.897 0.19907,0.3999 0.74555,0.5485 0.94474,0.9484 0.14082,0.2828 -0.14083,0.6658 0,0.9485 0.19907,0.4 0.74558,0.5486 0.94473,0.9485 0.14083,0.2828 -0.14082,0.6657 0,0.9485 0.19908,0.4 0.74559,0.5486 0.94477,0.9485 0.28164,0.5656 -0.28167,1.3314 0,1.897 0.19907,0.3999 0.74555,0.5486 0.94473,0.9485 0.14083,0.2828 -0.14082,0.6657 0,0.9485 0.19908,0.3999 0.74559,0.5486 0.94474,0.9485 0.14082,0.2828 -0.14082,0.6657 0,0.9485 0.19908,0.3999 0.74558,0.5486 0.94477,0.9485 0.28164,0.5656 -0.28167,1.3314 0,1.897 0.19907,0.3999 0.74555,0.5486 0.94473,0.9485 0.28168,0.5655 -0.28167,1.3314 0,1.897 0.19908,0.3999 0.74559,0.5485 0.94474,0.9485 0.25626,0.5145 -0.25839,3.5344 0,3.7939 0.22259,0.2236 0.72207,-0.2235 0.94477,0 0.44534,0.4472 -0.28167,1.3315 0,1.897 0.19907,0.3999 0.74555,0.5486 0.94473,0.9485 0.12212,0.2452 0,5.0187 0,5.691 0,0.3162 -0.22259,0.7249 0,0.9485 0.22259,0.2235 0.72207,-0.2236 0.94474,0 0.22259,0.2235 0,0.6323 0,0.9485 0,0.6597 0.17075,4.3994 0,4.7425 -0.19907,0.3999 -0.74558,0.5485 -0.94474,0.9484 -0.28682,0.576 0.28683,5.1151 0,5.691 -0.19907,0.3999 -0.74558,0.5486 -0.94473,0.9485 -0.28167,0.5656 0.44534,1.4499 0,1.897 -0.22259,0.2236 -0.72207,-0.2236 -0.94477,0 -0.44534,0.4471 0.28167,1.3314 0,1.897 -0.19907,0.3999 -0.74558,0.5486 -0.94474,0.9485 -0.14082,0.2828 0.14083,0.6657 0,0.9485 -0.19907,0.3999 -0.74558,0.5486 -0.94473,0.9485 -0.14083,0.2828 0.22259,0.7249 0,0.9485 -0.22259,0.2235 -0.72207,-0.2236 -0.94477,0 -0.22259,0.2235 0.14082,0.6657 0,0.9485 -0.19907,0.3999 -0.74558,0.5485 -0.94474,0.9485 -0.14082,0.2827 0.22259,0.7249 0,0.9484 -1.95472,1.9625 0.0764,-2.9989 -1.8895,0.9485 0,2.5294 0.31492,-0.3161 -0.94473,0.9485 -0.22259,0.2236 0.22259,0.725 0,0.9485 -1.95473,1.9625 0.0764,-2.9989 -1.88951,0.9485 -0.65157,1.3083 1.14414,0.8484 -0.94473,1.897 -0.28168,0.1414 -0.72207,-0.2235 -0.94474,0 -0.22259,0.2236 0.22259,0.725 0,0.9485 -0.22259,0.2236 -0.7221,-0.2235 -0.94477,0 -0.22259,0.2236 0.22259,0.7249 0,0.9485 -0.22259,0.2236 -0.72206,-0.2235 -0.94473,0 -0.22259,0.2236 0.22259,0.7249 0,0.9485 -0.22259,0.2236 -0.72207,-0.2236 -0.94477,0 -0.22259,0.2236 0.22259,0.7249 0,0.9485 -0.22259,0.2235 -0.66306,-0.1414 -0.94474,0 -0.79667,0.3999 -1.0928,1.4971 -1.8895,1.897 -0.28164,0.1414 -0.72206,-0.2236 -0.94473,0 -0.22259,0.2235 0.22258,0.7249 0,0.9485 -0.22259,0.2235 -0.72207,-0.2236 -0.94474,0 -0.22259,0.2235 0.22259,0.7249 0,0.9485 -0.44537,0.4471 -1.44414,-0.4472 -1.8895,0 -0.22259,0.2235 0.22259,0.7249 0,0.9485 -0.44537,0.4471 -1.32616,-0.2828 -1.88951,0 -0.39833,0.1999 -0.5464,0.7485 -0.94473,0.9485 -0.28167,0.1413 -0.66307,-0.1414 -0.94474,0 -0.39834,0.1999 -0.5464,0.7485 -0.94477,0.9485 -0.28167,0.1414 -0.72206,-0.2236 -0.94473,0 -0.22259,0.2235 0.22259,0.7249 0,0.9485 -0.22259,0.2235 -0.66307,-0.1414 -0.94474,0 -0.39834,0.1999 -0.5464,0.7485 -0.94477,0.9484 -0.75579,0.3794 -2.07842,-0.3794 -2.83423,0 -0.39834,0.2 -0.54641,0.7486 -0.94474,0.9485 -0.37458,0.1881 -2.6411,-0.1939 -2.83424,0 -0.22259,0.2236 0.22259,0.725 0,0.9485 -0.1932,0.1939 -2.45966,-0.188 -2.83424,0 -0.39834,0.2 -0.5464,0.7486 -0.94474,0.9485 -0.28167,0.1414 -0.62985,0 -0.94476,0 -0.62983,0 -1.29199,-0.1999 -1.88948,0 -0.42252,0.1414 -0.52224,0.8071 -0.94476,0.9485 -0.54133,0.1812 -3.83678,0 -4.72372,0 -0.62985,0 -1.36544,-0.3507 -1.8895,0 -0.58592,0.3922 -0.35884,1.5049 -0.94474,1.897 -0.52406,0.3508 -1.25967,0 -1.8895,0 -0.62982,0 -1.25967,0 -1.8895,0 -2.83424,0 -5.66848,0 -8.50272,0 -0.77345,0 -4.1116,-0.2048 -4.72371,0 -0.66804,0.2236 -1.22147,0.7249 -1.8895,0.9485 -0.59464,0.199 -3.87219,0 -4.72375,0 -3.46406,0 -6.92813,0 -10.39222,0 -2.5193,0 -5.03862,0 -7.55795,0 -0.31491,0 -0.72207,-0.2235 -0.94476,0 -0.22259,0.2236 -0.22259,0.7249 0,0.9485 0.22259,0.2236 0.72206,-0.2235 0.94476,0 0.22259,0.2236 -0.14082,0.6657 0,0.9485 0.19907,0.3999 0.74556,0.5486 0.94474,0.9485 0.14082,0.2828 -0.14082,0.6657 0,0.9485 0.19907,0.3999 0.74558,0.5486 0.94473,0.9485 0.14083,0.2828 -0.0997,0.6485 0,0.9485 1.08559,3.2696 0.94477,0.7026 0.94477,2.8455 0,2.5293 -0.31491,-0.3162 0.94474,0.9485 0.44536,0.4471 -0.28167,1.3314 0,1.8969 0.19907,0.4 0.74558,0.5486 0.94473,0.9485 0.14083,0.2828 -0.14082,0.6658 0,0.9485 0.19908,0.4 0.74559,0.5486 0.94477,0.9485 0.14082,0.2828 -0.22259,0.725 0,0.9485 0.22259,0.2236 0.72207,-0.2235 0.94474,0 0.22259,0.2236 -0.22259,0.725 0,0.9485 0.22259,0.2236 0.72206,-0.2235 0.94473,0 0.22259,0.2236 -0.14082,0.6657 0,0.9485 1.96593,3.9474 -0.0652,-1.014 1.88951,0.9485 0.22259,0.2236 -0.22259,0.7249 0,0.9485 0.22259,0.2236 0.72206,-0.2235 0.94473,0 0.22259,0.2236 -0.22259,0.7249 0,0.9485 1.95473,1.9625 -0.0764,-2.9989 1.88951,0.9485 0.14082,0.2828 -0.22259,0.7249 0,0.9485 0.22258,0.2235 0.66309,-0.1414 0.94473,0 1.00847,0.5062 0.88106,1.3907 1.8895,1.897 0.56335,0.2828 1.44414,-0.4472 1.88951,0 0.22259,0.2235 -0.22259,0.7249 0,0.9485 0.44534,0.4471 1.44413,-0.4472 1.88947,0 0.22259,0.2235 -0.22259,0.7249 0,0.9485 1.95473,1.9624 -0.0764,-2.999 1.8895,0.9485 0.14083,0.2827 -0.22259,0.7249 0,0.9484 0.44537,0.4472 1.44414,-0.4471 1.88951,0 0.22259,0.2236 -0.22259,0.725 0,0.9485 0.44534,0.4472 1.44413,-0.4471 1.8895,0 0.22259,0.2236 -0.22259,0.725 0,0.9485 0.22259,0.2236 0.72206,-0.2235 0.94473,0 0.22259,0.2236 -0.22259,0.725 0,0.9485 0.44537,0.4472 1.32616,-0.2828 1.88951,0 0.39833,0.2 0.5464,0.7486 0.94473,0.9485 0.56335,0.2828 1.44414,-0.4471 1.88951,0 0.22259,0.2236 -0.22259,0.725 0,0.9485 0.44534,0.4471 1.32613,-0.2828 1.88947,0 0.39834,0.2 0.5464,0.7486 0.94477,0.9485 0.56331,0.2828 1.32613,-0.2828 1.88947,0 3.13333,3.1458 -0.89071,-0.4471 1.8895,0.9485 0.39834,0.2 0.5464,0.7485 0.94474,0.9485 0.14536,0.073 3.24607,-0.4134 1.8895,0.9485 -0.22259,0.2236 -0.62982,0 -0.94474,0 -0.31493,0 -0.66309,0.1414 -0.94476,0 -0.39834,-0.1999 -0.5464,-0.7485 -0.94474,-0.9485 -0.28752,-0.1443 -2.40878,0 -2.83424,0 -1.8895,0 -3.77897,0 -5.66848,0 -1.8895,0 -3.77897,0 -5.66847,0 -0.31492,0 -0.72207,0.2236 -0.94477,0 -0.22259,-0.2235 0.22259,-0.7249 0,-0.9485 -0.33161,-0.3329 -4.07115,0.3276 -4.72371,0 -0.39834,-0.2 -0.5464,-0.7485 -0.94477,-0.9485 -0.28749,-0.1443 -2.40875,0 -2.83424,0 -2.21558,0 0.44537,0.2236 -1.88947,-0.9485 -0.56334,-0.2828 -1.44414,0.4471 -1.8895,0 -0.22259,-0.2235 0.22259,-0.7249 0,-0.9485 -0.22259,-0.2235 -0.94474,-0.3161 -0.94474,0 0,0.4472 1.25965,1.2647 0.94474,0.9485 -0.62983,-0.6323 -1.14839,-1.4009 -1.88951,-1.897 -0.52403,-0.3507 -1.32613,0.2828 -1.88947,0 -0.39834,-0.1999 -0.5464,-0.7485 -0.94477,-0.9485 -0.28167,-0.1413 -1.1674,-0.2235 -0.94473,0 0.49792,0.4999 2.38743,1.4484 1.8895,0.9485 -0.94477,-0.6323 -1.8895,-1.2646 -2.83424,-1.897 -0.31491,0 -0.66309,0.1414 -0.94477,0 -0.39833,-0.1999 -0.5464,-0.7485 -0.94473,-0.9485 -0.56334,-0.2827 -1.44414,0.4472 -1.8895,0 -0.22259,-0.2235 0.22259,-0.7249 0,-0.9484 -0.22259,-0.2236 -0.66307,0.1414 -0.94474,0 -0.39834,-0.2 -0.5464,-0.7486 -0.94474,-0.9485 -0.28167,-0.1414 -0.72207,0.2235 -0.94476,0 -0.49793,-0.4999 -0.44681,-1.3971 -0.94474,-1.897 -0.22259,-0.2236 -0.72207,0.2235 -0.94474,0 -0.22259,-0.2236 0.22259,-0.725 0,-0.9485 -0.44537,-0.4472 -1.44413,0.4471 -1.8895,0 -0.22259,-0.2236 0.22259,-0.725 0,-0.9485 -0.22259,-0.2236 -0.72207,0.2235 -0.94474,0 -0.22259,-0.2236 0.22259,-0.725 0,-0.9485 -0.22259,-0.2236 -0.72207,0.2235 -0.94476,0 -0.22259,-0.2236 0.22259,-0.7249 0,-0.9485 -0.22259,-0.2236 -0.66307,0.1414 -0.94474,0 -0.39834,-0.2 -0.5464,-0.7485 -0.94474,-0.9485 -0.28167,-0.1414 -0.66309,0.1414 -0.94476,0 -1.51268,-0.7593 -0.3768,-1.1376 -1.88948,-1.897 -0.28167,-0.1414 -0.72206,0.2236 -0.94476,0 -0.22259,-0.2235 0.22259,-0.7249 0,-0.9485 -0.22259,-0.2235 -0.72207,0.2236 -0.94474,0 -0.22259,-0.2235 0.22259,-0.7249 0,-0.9485 -1.95473,-1.9624 0.0764,2.9989 -1.8895,-0.9485 -0.14082,-0.2828 0.22259,-0.7249 0,-0.9485 -0.22259,-0.2235 -0.66307,0.1414 -0.94474,0 -0.92967,-0.4666 -2.84934,-3.3273 -3.77898,-3.7939 -0.28167,-0.1414 -0.72206,0.2235 -0.94476,0 -0.22259,-0.2236 0.14082,-0.6658 0,-0.9485 -0.56684,-1.1382 -2.2674,-1.7073 -2.83424,-2.8455 -0.14082,-0.2828 0.22259,-0.725 0,-0.9485 -0.22259,-0.2236 -0.72207,0.2235 -0.94474,0 -0.22259,-0.2236 0.22259,-0.7249 0,-0.9485 -1.95473,-1.9625 0.0764,2.9989 -1.8895,-0.9485 -0.14082,-0.2828 0.22259,-0.7249 0,-0.9485 -0.22259,-0.2236 -0.72207,0.2236 -0.94474,0 -0.22259,-0.2236 0.22259,-0.7249 0,-0.9485 -0.22259,-0.2235 -0.72206,0.2236 -0.94473,0 -0.22259,-0.2235 -0.31494,-0.9485 0,-0.9485 0.31491,0 0.31491,0.9485 0,0.9485 -0.44537,0 -0.54643,-0.7485 -0.94477,-0.9485 -0.28167,-0.1414 -0.62982,0 -0.94474,0 -0.31491,0 -0.66309,-0.1414 -0.94476,0 -0.39834,0.2 -0.5464,0.7485 -0.94474,0.9485 -0.59963,0.301 -4.41743,-0.3075 -4.72374,0 -0.22259,0.2236 0.22259,0.7249 0,0.9485 -0.22259,0.2236 -0.62982,0 -0.94474,0 -0.31491,0 -0.62982,0 -0.94473,0 -3.46407,0 -6.92816,0 -10.39222,0 -2.83424,0 -5.66848,0 -8.50272,0 -0.52732,0 -4.29126,0.1447 -4.72374,0 -0.4225,-0.1414 -0.52225,-0.8071 -0.94474,-0.9485 -0.52246,-0.1748 -4.71706,0 -5.66848,0 -0.31491,0 -0.62983,0 -0.94474,0 -0.31494,0 -0.66309,0.1414 -0.94476,0 -0.39834,-0.2 -0.5464,-0.7485 -0.94474,-0.9485 -0.24426,-0.1226 -4.99884,0 -5.66848,0 -0.31492,0 -0.62983,0 -0.94475,0 -0.31491,0 -0.72207,0.2236 -0.94475,0 -0.22267,-0.2235 0.22267,-0.7249 0,-0.9485 -0.22267,-0.2235 -0.62983,0 -0.94474,0 -1.57458,0 -3.14916,0 -4.72373,0 -0.31492,0 -0.72207,0.2236 -0.94475,0 -0.22267,-0.2235 0.22267,-0.7249 0,-0.9485 -0.25851,-0.2595 -3.26648,0.2573 -3.77899,0 -0.39834,-0.1999 -0.5464,-0.7485 -0.94474,-0.9485 -0.28166,-0.1414 -0.62983,0 -0.94474,0 -0.31492,0 -0.62983,0 -0.94475,0 -0.42547,0 -2.54672,0.1444 -2.83424,0 -0.39834,-0.1999 -0.5464,-0.7485 -0.94474,-0.9485 -0.7558,-0.3794 -2.07845,0.3794 -2.83424,0 -0.39834,-0.1999 -0.54641,-0.7485 -0.94475,-0.9485 -0.65257,-0.3275 -4.39211,0.333 -4.72373,0 -0.22267,-0.2235 0.22267,-0.7249 0,-0.9485 -0.22267,-0.2235 -0.62984,0 -0.94475,0 -0.31492,0 -0.62983,0 -0.94475,0 -2.20441,0 -4.40881,0 -6.61322,0 -0.42548,0 -2.54673,0.1444 -2.83424,0 -0.39834,-0.1999 -0.54641,-0.7485 -0.94475,-0.9485 -0.24426,-0.1226 -4.99884,0 -5.66848,0 -0.31492,0 -0.66308,0.1414 -0.94475,0 -0.39834,-0.1999 -0.5464,-0.7485 -0.94474,-0.9484 -0.57367,-0.288 -5.09481,0.2879 -5.66848,0 -0.39834,-0.2 -0.54641,-0.7486 -0.94475,-0.9485 -0.7558,-0.3794 -2.07844,0.3794 -2.83424,0 -0.39834,-0.2 -0.54641,-0.7486 -0.94475,-0.9485 -0.28166,-0.1414 -0.62983,0 -0.94474,0 -0.66964,0 -5.42422,0.1226 -5.66848,0 -0.39834,-0.2 -0.54641,-0.7486 -0.94475,-0.9485 -0.7558,-0.3794 -2.07844,0.3794 -2.83424,0 -0.39834,-0.2 -0.54641,-0.7486 -0.94475,-0.9485 -0.37458,-0.1881 -2.6411,0.1939 -2.83424,0 -0.22267,-0.2236 0.22267,-0.725 0,-0.9485 -0.44536,-0.4471 -1.32615,0.2828 -1.88949,0 -0.39834,-0.2 -0.54641,-0.7486 -0.94475,-0.9485 -0.56334,-0.2828 -1.32615,0.2828 -1.88949,0 -0.39834,-0.2 -0.54641,-0.7485 -0.94475,-0.9485 -0.7558,-0.3794 -2.07844,0.3794 -2.83424,0 -0.39834,-0.2 -0.5464,-0.7485 -0.94475,-0.9485 -0.28166,-0.1414 -0.72206,0.2235 -0.94474,0 -0.22267,-0.2236 0.22267,-0.7249 0,-0.9485 -0.22267,-0.2236 -0.66308,0.1414 -0.94475,0 -0.39834,-0.2 -0.54641,-0.7485 -0.94475,-0.9485 -0.56333,-0.2828 -1.44413,0.4471 -1.88949,0 -0.22267,-0.2235 0.22267,-0.7249 0,-0.9485 -0.22267,-0.2235 -0.72207,0.2236 -0.94475,0 -0.22267,-0.2235 0.22267,-0.7249 0,-0.9485 -0.22267,-0.2235 -0.66307,0.1414 -0.94474,0 -0.40398,-0.2028 -1.48552,-1.6942 -1.88949,-1.897 -0.28167,-0.1414 -0.72207,0.2236 -0.94475,0 -0.22267,-0.2235 0.22267,-0.7249 0,-0.9485 -0.22267,-0.2235 -0.72207,0.2236 -0.94475,0 -0.22267,-0.2235 0.22267,-0.7249 0,-0.9485 -0.22267,-0.2235 -0.72207,0.2236 -0.94474,0 -0.22267,-0.2235 0.22267,-0.7249 0,-0.9485 -0.22267,-0.2235 -0.66308,0.1414 -0.94475,0 -0.39834,-0.1999 -0.62983,-0.6323 -0.94475,-0.9485 -0.31491,-0.3161 -0.74558,-0.5485 -0.94474,-0.9484 -0.65158,-1.3084 1.14413,-0.8484 -0.94475,-1.897 -0.28167,-0.1414 -0.72207,0.2235 -0.94475,0 -0.22267,-0.2236 0.22267,-0.725 0,-0.9485 -0.22267,-0.2236 -0.72206,0.2235 -0.94475,0 -0.44535,-0.4472 0.44536,-1.4499 0,-1.897 -0.22267,-0.2236 -0.72206,0.2235 -0.94474,0 -0.22267,-0.2236 0.22267,-0.725 0,-0.9485 -0.22267,-0.2236 -0.72207,0.2235 -0.94475,0 -0.22267,-0.2236 0.22267,-0.7249 0,-0.9485 -1.95471,-1.9625 0.0764,2.9989 -1.88949,-0.9485 -0.28167,-0.5656 0.44536,-1.4499 0,-1.897 -0.22267,-0.2235 -0.72207,0.2236 -0.94475,0 -0.22267,-0.2235 0.14085,-0.6657 0,-0.9485 -0.19915,-0.3999 -0.74557,-0.5486 -0.94474,-0.9485 -0.14085,-0.2828 0,-0.6323 0,-0.9485 -0.31492,-0.3161 -0.74558,-0.5485 -0.94475,-0.9485 -0.14085,-0.2828 0.22267,-0.7249 0,-0.9485 -0.22267,-0.2235 -0.72207,0.2236 -0.94475,0 -0.22267,-0.2235 0.14085,-0.6657 0,-0.9485 -0.19915,-0.3999 -0.74558,-0.5485 -0.94474,-0.9485 -0.28167,-0.5655 0.28166,-1.3314 0,-1.8969 -0.19919,-0.4 -0.74558,-0.5486 -0.94475,-0.9485 -0.14082,-0.2828 0.14085,-0.6657 0,-0.9485 -0.19916,-0.4 0.0219,-0.4893 -0.17714,-0.8892 -0.14085,-0.2828 -0.28797,-1.1702 -0.17714,-1.5414 0.26399,-1.5901 0.27555,-2.0945 0.59046,-3.6754 z"
       id="path3791-3"
       inkscape:connector-curvature="0"
       sodipodi:nodetypes="ccccscccccccssssccsscccccccsssscccsssscccscssccccscsscscscssccccsssssccsssssccsssccsssssccscssscccscssccssscscccccccscsscccccccscccccccccccccccccccccccscccccsccccccccccsccscccccccscscccsccccsccccccccccccccccccccccccccsccccsccsscsssccsssccccccscsscsccccccccccccccscccccccccccccsccccccscscssssccccssccssccsscccscccccccccccccccccccccccccccccccccccccsscscsccssssccssscssccssccccsscscsscsssccscscsccscscssccscscccccssccccccccccccssccccsccccssccccccccscccccc" />
    <path
       style="fill:none;stroke:#000000;stroke-width:1.9;stroke-linecap:butt;stroke-linejoin:miter;stroke-opacity:1;display:inline;stroke-miterlimit:4;stroke-dasharray:none"
       d="m 77.48647,946.1359 176.19525,48.3732"
       id="path3795-9"
       inkscape:connector-curvature="0" />
    <path
       style="fill:none;stroke:#000000;stroke-width:2;stroke-linecap:butt;stroke-linejoin:miter;stroke-opacity:1;display:inline;stroke-miterlimit:4;stroke-dasharray:none"
       d="m 326.4272,936.651 -47.23733,60.2294"
       id="path3797-3"
       inkscape:connector-curvature="0"
       sodipodi:nodetypes="cc" />
    <path
       sodipodi:type="arc"
       style="fill:none;stroke:#000000;stroke-width:0.37349078;stroke-miterlimit:4;stroke-opacity:1;stroke-dasharray:none;display:inline"
       id="path3799-2"
       sodipodi:cx="116.14229"
       sodipodi:cy="73.559792"
       sodipodi:rx="3.0052037"
       sodipodi:ry="2.9168155"
       d="m 119.14749,73.559792 c 0,1.610912 -1.34547,2.916815 -3.0052,2.916815 -1.65973,0 -3.00521,-1.305903 -3.00521,-2.916815 0,-1.610913 1.34548,-2.916816 3.00521,-2.916816 1.65973,0 3.0052,1.305903 3.0052,2.916816 z"
       transform="matrix(2.672147,0,0,2.6827481,-102.96014,764.68077)" />
    <path
       sodipodi:type="arc"
       style="fill:none;stroke:#000000;stroke-width:0.37349078;stroke-miterlimit:4;stroke-opacity:1;stroke-dasharray:none;display:inline"
       id="path3799-1-9"
       sodipodi:cx="116.14229"
       sodipodi:cy="73.559792"
       sodipodi:rx="3.0052037"
       sodipodi:ry="2.9168155"
       d="m 119.14749,73.559792 c 0,1.610912 -1.34547,2.916815 -3.0052,2.916815 -1.65973,0 -3.00521,-1.305903 -3.00521,-2.916815 0,-1.610913 1.34548,-2.916816 3.00521,-2.916816 1.65973,0 3.0052,1.305903 3.0052,2.916816 z"
       transform="matrix(2.672147,0,0,2.6827481,-70.93132,764.03444)" />
    <text
       xml:space="preserve"
       style="font-size:26.7744236px;font-style:normal;font-weight:normal;line-height:125%;letter-spacing:0px;word-spacing:0px;fill:#000000;fill-opacity:1;stroke:none;display:inline;font-family:Sans"
       x="193.83585"
       y="936.48669"
       id="text3839-0"
       sodipodi:linespacing="125%"
       transform="scale(0.99802222,1.0019817)"><tspan
         sodipodi:role="line"
         id="tspan3841-7"
         x="193.83585"
         y="936.48669"><tspan
           style="font-size:21.4195385px"
           id="tspan3845-5">f</tspan><tspan
           style="font-size:17.40361977px;baseline-shift:sub"
           id="tspan3843-6">a</tspan></tspan></text>
    <text
       xml:space="preserve"
       style="font-size:26.7744236px;font-style:normal;font-weight:normal;line-height:125%;letter-spacing:0px;word-spacing:0px;fill:#000000;fill-opacity:1;stroke:none;display:inline;font-family:Sans"
       x="237.97104"
       y="936.48669"
       id="text3839-9-3"
       sodipodi:linespacing="125%"
       transform="scale(0.99802222,1.0019817)"><tspan
         sodipodi:role="line"
         id="tspan3841-4-1"
         x="237.97104"
         y="936.48669"><tspan
           style="font-size:21.4195385px"
           id="tspan3845-4-0">f</tspan><tspan
           style="font-size:17.40361977px;baseline-shift:sub"
           id="tspan3843-7-4">b</tspan></tspan></text>
    <text
       xml:space="preserve"
       style="font-size:26.7744236px;font-style:normal;font-weight:normal;line-height:125%;letter-spacing:0px;word-spacing:0px;fill:#000000;fill-opacity:1;stroke:none;display:inline;font-family:Sans"
       x="155.6398"
       y="991.37427"
       id="text3839-6-5"
       sodipodi:linespacing="125%"
       transform="scale(0.99802222,1.0019817)"><tspan
         sodipodi:role="line"
         id="tspan3841-6-2"
         x="155.6398"
         y="991.37427"
         style="font-size:22px">s<tspan
   style="font-size:65.00091553%;baseline-shift:sub"
   id="tspan4673">a</tspan></tspan></text>
    <text
       xml:space="preserve"
       style="font-size:26.7744236px;font-style:normal;font-weight:normal;line-height:125%;letter-spacing:0px;word-spacing:0px;fill:#000000;fill-opacity:1;stroke:none;display:inline;font-family:Sans"
       x="310.93137"
       y="980.66455"
       id="text3839-7-2"
       sodipodi:linespacing="125%"
       transform="scale(0.99802222,1.0019817)"><tspan
         sodipodi:role="line"
         id="tspan3841-8-7"
         x="310.93137"
         y="980.66455"
         style="font-size:22px">s<tspan
   style="font-size:65.00091553%;baseline-shift:sub"
   id="tspan4675">b</tspan></tspan></text>
    <path
       style="fill:none;stroke:#000000;stroke-width:1px;stroke-linecap:butt;stroke-linejoin:miter;stroke-opacity:1;display:inline"
       d="m 76.07673,949.8838 3.88909,-7.0711"
       id="path3013-3"
       inkscape:connector-curvature="0" />
    <path
       style="fill:none;stroke:#000000;stroke-width:1px;stroke-linecap:butt;stroke-linejoin:miter;stroke-opacity:1;display:inline"
       d="M 330.63517,940.3378 322.857,934.681"
       id="path3037-9"
       inkscape:connector-curvature="0" />
    <path
       style="fill:none;stroke:#000000;stroke-width:1px;stroke-linecap:butt;stroke-linejoin:miter;stroke-opacity:1;display:inline"
       d="m 254.35598,990.896 -2.12132,7.071"
       id="path3045-4"
       inkscape:connector-curvature="0" />
    <path
       style="fill:none;stroke:#000000;stroke-width:1px;stroke-linecap:butt;stroke-linejoin:miter;stroke-opacity:1;display:inline"
       d="m 275.3482,993.3708 6.01041,6.364"
       id="path3047-1"
       inkscape:connector-curvature="0" />
    <path
       style="fill:none;stroke:#000000;stroke-width:0.99999994px;stroke-linecap:butt;stroke-linejoin:miter;stroke-opacity:1"
       d="m 523.48829,860.04146 0.086,9.80092"
       id="path3410"
       inkscape:connector-curvature="0"
       sodipodi:nodetypes="cc" />
    <path
       style="fill:none;stroke:#000000;stroke-width:0.99999994px;stroke-linecap:butt;stroke-linejoin:miter;stroke-opacity:1"
       d="m 517.85373,864.74419 11.44105,-0.15687"
       id="path3412"
       inkscape:connector-curvature="0" />
    <path
       style="fill:none;stroke:#000000;stroke-width:0.99999994;stroke-linecap:butt;stroke-linejoin:miter;stroke-miterlimit:4;stroke-opacity:1;stroke-dasharray:0.99999997, 0.99999997;stroke-dashoffset:0;display:inline"
       d="m 591.55597,977.2931 30.5339,2.73665"
       id="path3819-3-1"
       inkscape:connector-curvature="0"
       sodipodi:nodetypes="cc" />
    <text
       xml:space="preserve"
       style="font-size:19.36858559px;font-style:normal;font-weight:normal;line-height:125%;letter-spacing:0px;word-spacing:0px;fill:#000000;fill-opacity:1;stroke:none;display:inline;font-family:Sans"
       x="598.98541"
       y="996.35645"
       id="text3839-8-2-5-9"
       sodipodi:linespacing="125%"
       transform="scale(0.99757439,1.0024315)"><tspan
         sodipodi:role="line"
         id="tspan3841-60-3-5-7"
         x="598.98541"
         y="996.35645"
         style="font-size:15.05251598px">ds<tspan
   style="font-size:9.78427315px;baseline-shift:sub"
   id="tspan4618">a</tspan></tspan></text>
    <path
       style="fill:none;stroke:#000000;stroke-width:0.99999994;stroke-linecap:butt;stroke-linejoin:miter;stroke-miterlimit:4;stroke-opacity:1;stroke-dasharray:0.99999997, 0.99999997;stroke-dashoffset:0;display:inline"
       d="m 523.36906,864.66328 99.36812,115.56977"
       id="path3819-90"
       inkscape:connector-curvature="0"
       sodipodi:nodetypes="cc" />
    <text
       xml:space="preserve"
       style="font-size:26.7744236px;font-style:normal;font-weight:normal;line-height:125%;letter-spacing:0px;word-spacing:0px;fill:#000000;fill-opacity:1;stroke:none;display:inline;font-family:Sans"
       x="63.454597"
       y="959.4397"
       id="text3839-6-56"
       sodipodi:linespacing="125%"
       transform="scale(0.99802222,1.0019817)"><tspan
         sodipodi:role="line"
         id="tspan3841-6-13"
         x="63.454597"
         y="959.4397"
         style="font-size:16px;writing-mode:lr-tb">v<tspan
   style="font-size:10.40014648px;baseline-shift:sub"
   id="tspan3210-4">9</tspan></tspan></text>
    <path
       style="fill:none;stroke:#000000;stroke-width:1px;stroke-linecap:butt;stroke-linejoin:miter;stroke-opacity:1;display:inline"
       d="m 46.728949,914.05515 9.192395,-0.35355"
       id="path3015-0"
       inkscape:connector-curvature="0" />
    <path
       style="fill:none;stroke:#000000;stroke-width:1px;stroke-linecap:butt;stroke-linejoin:miter;stroke-opacity:1;display:inline"
       d="m 68.649264,880.5889 6.0104,7.42462"
       id="path3017-1"
       inkscape:connector-curvature="0" />
    <path
       style="fill:none;stroke:#000000;stroke-width:1px;stroke-linecap:butt;stroke-linejoin:miter;stroke-opacity:1;display:inline"
       d="m 101.17617,859.02214 4.24264,6.36396"
       id="path3019-70"
       inkscape:connector-curvature="0" />
    <path
       style="fill:none;stroke:#000000;stroke-width:1px;stroke-linecap:butt;stroke-linejoin:miter;stroke-opacity:1;display:inline"
       d="m 159.86608,842.75869 2.47488,9.54594"
       id="path3021-4"
       inkscape:connector-curvature="0" />
    <path
       style="fill:none;stroke:#000000;stroke-width:1px;stroke-linecap:butt;stroke-linejoin:miter;stroke-opacity:1;display:inline"
       d="m 205.47447,838.16249 0.70711,9.19239"
       id="path3023-9"
       inkscape:connector-curvature="0" />
    <path
       style="fill:none;stroke:#000000;stroke-width:1px;stroke-linecap:butt;stroke-linejoin:miter;stroke-opacity:1;display:inline"
       d="m 233.05163,838.8696 -1.41421,8.13173"
       id="path3025-4"
       inkscape:connector-curvature="0" />
    <path
       style="fill:none;stroke:#000000;stroke-width:1px;stroke-linecap:butt;stroke-linejoin:miter;stroke-opacity:1;display:inline"
       d="m 294.92348,854.42595 -3.53554,7.42462"
       id="path3027-3"
       inkscape:connector-curvature="0" />
    <path
       style="fill:none;stroke:#000000;stroke-width:1px;stroke-linecap:butt;stroke-linejoin:miter;stroke-opacity:1;display:inline"
       d="m 321.08643,871.04296 -6.36396,6.71751"
       id="path3029-6"
       inkscape:connector-curvature="0" />
    <path
       style="fill:none;stroke:#000000;stroke-width:1px;stroke-linecap:butt;stroke-linejoin:miter;stroke-opacity:1;display:inline"
       d="m 326.74328,877.76047 -6.71751,5.3033"
       id="path3031-7"
       inkscape:connector-curvature="0" />
    <path
       style="fill:none;stroke:#000000;stroke-width:1px;stroke-linecap:butt;stroke-linejoin:miter;stroke-opacity:1;display:inline"
       d="m 335.93567,904.63053 -8.13173,1.41422"
       id="path3033-6"
       inkscape:connector-curvature="0" />
    <path
       style="fill:none;stroke:#000000;stroke-width:1px;stroke-linecap:butt;stroke-linejoin:miter;stroke-opacity:1;display:inline"
       d="m 335.22856,927.6115 -8.48528,-2.82843"
       id="path3035-2"
       inkscape:connector-curvature="0" />
    <path
       style="fill:none;stroke:#000000;stroke-width:1px;stroke-linecap:butt;stroke-linejoin:miter;stroke-opacity:1;display:inline"
       d="m 330.63237,940.33942 -7.77817,-5.65685"
       id="path3037-4"
       inkscape:connector-curvature="0" />
    <text
       xml:space="preserve"
       style="font-size:26.7744236px;font-style:normal;font-weight:normal;line-height:125%;letter-spacing:0px;word-spacing:0px;fill:#000000;fill-opacity:1;stroke:none;display:inline;font-family:Sans"
       x="24.704744"
       y="917.48956"
       id="text3839-6-4-01"
       sodipodi:linespacing="125%"
       transform="scale(0.99802222,1.0019817)"><tspan
         sodipodi:role="line"
         id="tspan3841-6-1-83"
         x="24.704744"
         y="917.48956"
         style="font-size:16px;writing-mode:lr-tb">v<tspan
   style="font-size:10.40014648px;baseline-shift:sub"
   id="tspan3210-8-23">10</tspan></tspan></text>
    <text
       xml:space="preserve"
       style="font-size:26.7744236px;font-style:normal;font-weight:normal;line-height:125%;letter-spacing:0px;word-spacing:0px;fill:#000000;fill-opacity:1;stroke:none;display:inline;font-family:Sans"
       x="48.752319"
       y="869.58453"
       id="text3839-6-4-1-8"
       sodipodi:linespacing="125%"
       transform="scale(0.99802222,1.0019817)"><tspan
         sodipodi:role="line"
         id="tspan3841-6-1-2-8"
         x="48.752319"
         y="869.58453"
         style="font-size:16px;writing-mode:lr-tb">v<tspan
   style="font-size:10.40014648px;baseline-shift:sub"
   id="tspan3210-8-2-6">11</tspan></tspan></text>
    <text
       xml:space="preserve"
       style="font-size:26.7744236px;font-style:normal;font-weight:normal;line-height:125%;letter-spacing:0px;word-spacing:0px;fill:#000000;fill-opacity:1;stroke:none;display:inline;font-family:Sans"
       x="85.03199"
       y="848.88013"
       id="text3839-6-4-0-3"
       sodipodi:linespacing="125%"
       transform="scale(0.99802222,1.0019817)"><tspan
         sodipodi:role="line"
         id="tspan3841-6-1-0-5"
         x="85.03199"
         y="848.88013"
         style="font-size:16px;writing-mode:lr-tb">v<tspan
   style="font-size:10.40014648px;baseline-shift:sub"
   id="tspan3210-8-6-8">12</tspan></tspan></text>
    <text
       xml:space="preserve"
       style="font-size:26.7744236px;font-style:normal;font-weight:normal;line-height:125%;letter-spacing:0px;word-spacing:0px;fill:#000000;fill-opacity:1;stroke:none;display:inline;font-family:Sans"
       x="150.56886"
       y="833.35455"
       id="text3839-6-4-03-4"
       sodipodi:linespacing="125%"
       transform="scale(0.99802222,1.0019817)"><tspan
         sodipodi:role="line"
         id="tspan3841-6-1-3-8"
         x="150.56886"
         y="833.35455"
         style="font-size:16px;writing-mode:lr-tb">v<tspan
   style="font-size:10.40014648px;baseline-shift:sub"
   id="tspan3210-8-21-3">13</tspan></tspan></text>
    <text
       xml:space="preserve"
       style="font-size:26.7744236px;font-style:normal;font-weight:normal;line-height:125%;letter-spacing:0px;word-spacing:0px;fill:#000000;fill-opacity:1;stroke:none;display:inline;font-family:Sans"
       x="196.97621"
       y="831.11633"
       id="text3839-6-4-3-4"
       sodipodi:linespacing="125%"
       transform="scale(0.99802222,1.0019817)"><tspan
         sodipodi:role="line"
         id="tspan3841-6-1-1-0"
         x="196.97621"
         y="831.11633"
         style="font-size:16px;writing-mode:lr-tb">v<tspan
   style="font-size:10.40014648px;baseline-shift:sub"
   id="tspan3210-8-0-7">14</tspan></tspan></text>
    <text
       xml:space="preserve"
       style="font-size:26.7744236px;font-style:normal;font-weight:normal;line-height:125%;letter-spacing:0px;word-spacing:0px;fill:#000000;fill-opacity:1;stroke:none;display:inline;font-family:Sans"
       x="226.73349"
       y="831.46918"
       id="text3839-6-4-37-1"
       sodipodi:linespacing="125%"
       transform="scale(0.99802222,1.0019817)"><tspan
         sodipodi:role="line"
         id="tspan3841-6-1-14-0"
         x="226.73349"
         y="831.46918"
         style="font-size:16px;writing-mode:lr-tb">v<tspan
   style="font-size:10.40014648px;baseline-shift:sub"
   id="tspan3210-8-8-3">0</tspan></tspan></text>
    <text
       xml:space="preserve"
       style="font-size:26.7744236px;font-style:normal;font-weight:normal;line-height:125%;letter-spacing:0px;word-spacing:0px;fill:#000000;fill-opacity:1;stroke:none;display:inline;font-family:Sans"
       x="293.33331"
       y="845.93622"
       id="text3839-6-4-8-0"
       sodipodi:linespacing="125%"
       transform="scale(0.99802222,1.0019817)"><tspan
         sodipodi:role="line"
         id="tspan3841-6-1-4-6"
         x="293.33331"
         y="845.93622"
         style="font-size:16px;writing-mode:lr-tb">v<tspan
   style="font-size:10.40014648px;baseline-shift:sub"
   id="tspan3210-8-4-6">1</tspan></tspan></text>
    <text
       xml:space="preserve"
       style="font-size:26.7744236px;font-style:normal;font-weight:normal;line-height:125%;letter-spacing:0px;word-spacing:0px;fill:#000000;fill-opacity:1;stroke:none;display:inline;font-family:Sans"
       x="318.71832"
       y="862.39923"
       id="text3839-6-4-2-6"
       sodipodi:linespacing="125%"
       transform="scale(0.99802222,1.0019817)"><tspan
         sodipodi:role="line"
         id="tspan3841-6-1-13-3"
         x="318.71832"
         y="862.39923"
         style="font-size:16px;writing-mode:lr-tb">v<tspan
   style="font-size:10.40014648px;baseline-shift:sub"
   id="tspan3210-8-05-5">2</tspan></tspan></text>
    <text
       xml:space="preserve"
       style="font-size:26.7744236px;font-style:normal;font-weight:normal;line-height:125%;letter-spacing:0px;word-spacing:0px;fill:#000000;fill-opacity:1;stroke:none;display:inline;font-family:Sans"
       x="331.11722"
       y="878.63055"
       id="text3839-6-4-6-0"
       sodipodi:linespacing="125%"
       transform="scale(0.99802222,1.0019817)"><tspan
         sodipodi:role="line"
         id="tspan3841-6-1-6-0"
         x="331.11722"
         y="878.63055"
         style="font-size:16px;writing-mode:lr-tb">v<tspan
   style="font-size:10.40014648px;baseline-shift:sub"
   id="tspan3210-8-84-7">3</tspan></tspan></text>
    <text
       xml:space="preserve"
       style="font-size:26.7744236px;font-style:normal;font-weight:normal;line-height:125%;letter-spacing:0px;word-spacing:0px;fill:#000000;fill-opacity:1;stroke:none;display:inline;font-family:Sans"
       x="337.96957"
       y="903.80426"
       id="text3839-6-4-9-2"
       sodipodi:linespacing="125%"
       transform="scale(0.99802222,1.0019817)"><tspan
         sodipodi:role="line"
         id="tspan3841-6-1-24-2"
         x="337.96957"
         y="903.80426"
         style="font-size:16px;writing-mode:lr-tb">v<tspan
   style="font-size:10.40014648px;baseline-shift:sub"
   id="tspan3210-8-057-0">4</tspan></tspan></text>
    <text
       xml:space="preserve"
       style="font-size:26.7744236px;font-style:normal;font-weight:normal;line-height:125%;letter-spacing:0px;word-spacing:0px;fill:#000000;fill-opacity:1;stroke:none;display:inline;font-family:Sans"
       x="338.32382"
       y="928.15125"
       id="text3839-6-4-28-1"
       sodipodi:linespacing="125%"
       transform="scale(0.99802222,1.0019817)"><tspan
         sodipodi:role="line"
         id="tspan3841-6-1-03-6"
         x="338.32382"
         y="928.15125"
         style="font-size:16px;writing-mode:lr-tb">v<tspan
   style="font-size:10.40014648px;baseline-shift:sub"
   id="tspan3210-8-9-3">5</tspan></tspan></text>
    <text
       xml:space="preserve"
       style="font-size:26.7744236px;font-style:normal;font-weight:normal;line-height:125%;letter-spacing:0px;word-spacing:0px;fill:#000000;fill-opacity:1;stroke:none;display:inline;font-family:Sans"
       x="335.83365"
       y="948.37457"
       id="text3839-6-4-62-6"
       sodipodi:linespacing="125%"
       transform="scale(0.99802222,1.0019817)"><tspan
         sodipodi:role="line"
         id="tspan3841-6-1-20-6"
         x="335.83365"
         y="948.37457"
         style="font-size:16px;writing-mode:lr-tb">v<tspan
   style="font-size:10.40014648px;baseline-shift:sub"
   id="tspan3210-8-00-3">6</tspan></tspan></text>
    <text
       xml:space="preserve"
       style="font-size:26.7744236px;font-style:normal;font-weight:normal;line-height:125%;letter-spacing:0px;word-spacing:0px;fill:#000000;fill-opacity:1;stroke:none;display:inline;font-family:Sans"
       x="243.58194"
       y="1008.9219"
       id="text3839-6-56-2"
       sodipodi:linespacing="125%"
       transform="scale(0.99802222,1.0019817)"><tspan
         sodipodi:role="line"
         id="tspan3841-6-13-5"
         x="243.58194"
         y="1008.9219"
         style="font-size:16px;writing-mode:lr-tb">v<tspan
   style="font-size:10.40014648px;baseline-shift:sub"
   id="tspan3210-4-3">8</tspan></tspan></text>
    <text
       xml:space="preserve"
       style="font-size:26.7744236px;font-style:normal;font-weight:normal;line-height:125%;letter-spacing:0px;word-spacing:0px;fill:#000000;fill-opacity:1;stroke:none;display:inline;font-family:Sans"
       x="280.15427"
       y="1009.0692"
       id="text3839-6-56-6"
       sodipodi:linespacing="125%"
       transform="scale(0.99802222,1.0019817)"><tspan
         sodipodi:role="line"
         id="tspan3841-6-13-8"
         x="280.15427"
         y="1009.0692"
         style="font-size:16px;writing-mode:lr-tb">v<tspan
   style="font-size:10.40014648px;baseline-shift:sub"
   id="tspan3210-4-5">7</tspan></tspan></text>
    <text
       xml:space="preserve"
       style="font-size:19.36858559px;font-style:normal;font-weight:normal;line-height:125%;letter-spacing:0px;word-spacing:0px;fill:#000000;fill-opacity:1;stroke:none;display:inline;font-family:Sans"
       x="558.09204"
       y="964.35944"
       id="text3839-8-2-5-9-5"
       sodipodi:linespacing="125%"
       transform="scale(0.99757439,1.0024315)"><tspan
         sodipodi:role="line"
         id="tspan3841-60-3-5-7-5"
         x="558.09204"
         y="964.35944"
         style="font-size:15.05251598px">df<tspan
   style="font-size:9.78427315px;baseline-shift:sub"
   id="tspan4618-0">a</tspan></tspan></text>
    <text
       xml:space="preserve"
       style="font-size:19.36858559px;font-style:normal;font-weight:normal;line-height:125%;letter-spacing:0px;word-spacing:0px;fill:#000000;fill-opacity:1;stroke:none;display:inline;font-family:Sans"
       x="577.31305"
       y="914.11407"
       id="text3839-8-2-5-9-6"
       sodipodi:linespacing="125%"
       transform="scale(0.99757439,1.0024315)"><tspan
         sodipodi:role="line"
         id="tspan3841-60-3-5-7-2"
         x="577.31305"
         y="914.11407"
         style="font-size:15.05251598px">dc<tspan
   style="font-size:9.78427315px;baseline-shift:sub"
   id="tspan4618-1" /></tspan></text>
    <text
       xml:space="preserve"
       style="font-size:19.36858559px;font-style:normal;font-weight:normal;line-height:125%;letter-spacing:0px;word-spacing:0px;fill:#000000;fill-opacity:1;stroke:none;display:inline;font-family:Sans"
       x="603.80957"
       y="952.62134"
       id="text3839-8-2-5-9-0"
       sodipodi:linespacing="125%"
       transform="scale(0.99757439,1.0024315)"><tspan
         sodipodi:role="line"
         id="tspan3841-60-3-5-7-8"
         x="603.80957"
         y="952.62134"
         style="font-size:15.05251598px">df<tspan
   style="font-size:9.78427315px;baseline-shift:sub"
   id="tspan4666">b</tspan></tspan></text>
    <path
       style="fill:none;stroke:#000000;stroke-width:2;stroke-linecap:butt;stroke-linejoin:miter;stroke-opacity:1;stroke-miterlimit:4;stroke-dasharray:none"
       d="M 77.428193,155.42689 208.24295,171.69034"
       id="path4696"
       inkscape:connector-curvature="0"
       transform="translate(0,790.16198)" />
    <path
       style="fill:none;stroke:#000000;stroke-width:2;stroke-linecap:butt;stroke-linejoin:miter;stroke-opacity:1;stroke-miterlimit:4;stroke-dasharray:none"
       d="M 253.14423,204.21726 207.88939,171.33679"
       id="path4698"
       inkscape:connector-curvature="0"
       transform="translate(0,790.16198)" />
    <path
       style="fill:none;stroke:#000000;stroke-width:2;stroke-linecap:butt;stroke-linejoin:miter;stroke-opacity:1;stroke-miterlimit:4;stroke-dasharray:none"
       d="M 278.60007,206.33858 238.64854,170.98324"
       id="path4700"
       inkscape:connector-curvature="0"
       transform="translate(0,790.16198)" />
    <path
       style="fill:none;stroke:#000000;stroke-width:2;stroke-linecap:butt;stroke-linejoin:miter;stroke-opacity:1;stroke-miterlimit:4;stroke-dasharray:none"
       d="m 325.97623,146.94161 -86.97414,24.04163"
       id="path4702"
       inkscape:connector-curvature="0"
       transform="translate(0,790.16198)" />
    <path
       style="fill:none;stroke:#000000;stroke-width:1px;stroke-linecap:butt;stroke-linejoin:miter;stroke-opacity:1;display:inline"
       d="m 193.21559,898.67839 0.0686,7.80987"
       id="path3410-6"
       inkscape:connector-curvature="0"
       sodipodi:nodetypes="cc" />
    <path
       style="fill:none;stroke:#000000;stroke-width:1px;stroke-linecap:butt;stroke-linejoin:miter;stroke-opacity:1;display:inline"
       d="m 188.72165,902.42576 9.125,-0.125"
       id="path3412-6"
       inkscape:connector-curvature="0" />
    <text
       xml:space="preserve"
       style="font-size:26.7744236px;font-style:normal;font-weight:normal;line-height:125%;letter-spacing:0px;word-spacing:0px;fill:#000000;fill-opacity:1;stroke:none;display:inline;font-family:Sans"
       x="195.8195"
       y="894.99725"
       id="text3839-75-5"
       sodipodi:linespacing="125%"
       transform="scale(0.99802222,1.0019817)"><tspan
         sodipodi:role="line"
         id="tspan3841-88-1"
         x="195.8195"
         y="894.99725"><tspan
           style="font-size:21.4195385px"
           id="tspan3845-6-3">c</tspan><tspan
           style="font-size:17.40361977px;baseline-shift:sub"
           id="tspan3843-5-8" /></tspan></text>
    <text
       xml:space="preserve"
       style="font-size:27.20711136px;font-style:normal;font-weight:normal;line-height:125%;letter-spacing:0px;word-spacing:0px;fill:#000000;fill-opacity:1;stroke:none;display:inline;font-family:Sans"
       x="398.85043"
       y="942.02277"
       id="text3839-6-56-0"
       sodipodi:linespacing="125%"
       transform="scale(0.99757439,1.0024315)"><tspan
         sodipodi:role="line"
         id="tspan3841-6-13-54"
         x="398.85043"
         y="942.02277"
         style="font-size:16.25856781px;writing-mode:lr-tb">v<tspan
   style="font-size:10.56821823px;baseline-shift:sub"
   id="tspan3210-4-2">9</tspan></tspan></text>
    <text
       xml:space="preserve"
       style="font-size:27.34033585px;font-style:normal;font-weight:normal;line-height:125%;letter-spacing:0px;word-spacing:0px;fill:#000000;fill-opacity:1;stroke:none;display:inline;font-family:Sans"
       x="695.89301"
       y="918.81244"
       id="text3839-6-4-62-6-7"
       sodipodi:linespacing="125%"
       transform="scale(0.99757439,1.0024315)"><tspan
         sodipodi:role="line"
         id="tspan3841-6-1-20-6-1"
         x="695.89301"
         y="918.81244"
         style="font-size:16.33818054px;writing-mode:lr-tb">v<tspan
   style="font-size:10.61996746px;baseline-shift:sub"
   id="tspan3210-8-00-3-7">6</tspan></tspan></text>
    <text
       xml:space="preserve"
       style="font-size:26.7744236px;font-style:normal;font-weight:normal;line-height:125%;letter-spacing:0px;word-spacing:0px;fill:#000000;fill-opacity:1;stroke:none;display:inline;font-family:Sans"
       x="526.73987"
       y="855.70593"
       id="text3839-75-5-6"
       sodipodi:linespacing="125%"
       transform="scale(0.99802222,1.0019817)"><tspan
         sodipodi:role="line"
         id="tspan3841-88-1-6"
         x="526.73987"
         y="855.70593"><tspan
           style="font-size:21.4195385px"
           id="tspan3845-6-3-4">c</tspan><tspan
           style="font-size:17.40361977px;baseline-shift:sub"
           id="tspan3843-5-8-9" /></tspan></text>
  </g>
</svg>
