<?xml version="1.0" encoding="UTF-8"?>
<svg xmlns:xlink="http://www.w3.org/1999/xlink" xmlns="http://www.w3.org/2000/svg" contentScriptType="text/ecmascript" width="284mm" zoomAndPan="magnify" contentStyleType="text/css" height="330mm" viewBox="0 0 569 661" preserveAspectRatio="xMidYMid meet" version="1.0">
    <title>CYB_COSMOZONE_010.jpg</title>
    <svg contentScriptType="text/ecmascript" xmlns:xlink="http://www.w3.org/1999/xlink" zoomAndPan="magnify" class="Page" contentStyleType="text/css" preserveAspectRatio="xMidYMid meet" xmlns="http://www.w3.org/2000/svg" version="1.0">
        <image x="0" y="0" width="569" xmlns:xlink="http://www.w3.org/1999/xlink" xlink:href="CYB_COSMOZONE_010.jpg" xlink:type="simple" xlink:actuate="onLoad" opacity="0.5" height="661" preserveAspectRatio="xMidYMid meet" xlink:show="embed"/>
    </svg>
    <style type="text/css" xml:space="preserve"><![CDATA[
		* { stroke-width: 2; stroke-linejoin: round; }
		.Panel { fill: none; stroke: red; opacity: 1.0; visibility: visible; }

		.Line { fill: none; stroke: none; opacity: 0.3; visibility: visible; }
		.Balloon { fill: none; stroke: red; opacity: 1; visibility: visible; }
		.TextArea { fill: none; stroke: green; opacity: 0.5; visibility: visible; }
		.Letter { fill: none; stroke: blue; opacity: 0.1; visibility: visible; }
		.Object { fill: yellow; opacity: 1.0; visibility: visible; }
		.Page { fill: none; stroke: white; opacity: 0.5; visibility: visible; image-rendering: optimizeSpeed; }
		.Noise { fill: none; stroke: pink; opacity: 1.0; visibility: hidden; }
		.Debug { fill: none; stroke: red; opacity: 1.0; visibility: visible; }
		.Unclassified { fill: none; stroke: orange; opacity: 1.0; visibility: hidden; }
]]></style>
    <svg contentScriptType="text/ecmascript" xmlns:xlink="http://www.w3.org/1999/xlink" zoomAndPan="magnify" class="Panel" contentStyleType="text/css" preserveAspectRatio="xMidYMid meet" xmlns="http://www.w3.org/2000/svg" version="1.0"/>
    <svg contentScriptType="text/ecmascript" xmlns:xlink="http://www.w3.org/1999/xlink" zoomAndPan="magnify" class="Letter" contentStyleType="text/css" preserveAspectRatio="xMidYMid meet" xmlns="http://www.w3.org/2000/svg" version="1.0"/>
    <svg contentScriptType="text/ecmascript" xmlns:xlink="http://www.w3.org/1999/xlink" zoomAndPan="magnify" class="Line" contentStyleType="text/css" preserveAspectRatio="xMidYMid meet" xmlns="http://www.w3.org/2000/svg" version="1.0">
        <polygon points="68,33 194,33 194,67 68,67 68,33"/>
        <polygon points="168,53 238,53 238,70 168,70 168,53"/>
        <polygon points="22,97 128,97 128,112 22,112 22,97"/>
        <polygon points="22,110 132,110 132,122 22,122 22,110"/>
        <polygon points="41,122 112,122 112,135 41,135 41,122"/>
        <polygon points="47,135 106,135 106,147 47,147 47,135"/>
        <polygon points="176,95 245,95 245,109 176,109 176,95"/>
        <polygon points="173,110 251,110 251,122 173,122 173,110"/>
        <polygon points="174,121 248,121 248,136 174,136 174,121"/>
        <polygon points="189,132 231,132 231,148 189,148 189,132"/>
        <polygon points="288,86 429,86 429,103 288,103 288,86"/>
        <polygon points="288,100 427,100 427,112 288,112 288,100"/>
        <polygon points="285,112 375,112 375,127 285,127 285,112"/>
        <polygon points="288,122 415,122 415,139 288,139 288,122"/>
        <polygon points="289,136 412,136 412,151 289,151 289,136"/>
        <polygon points="288,147 386,147 386,160 288,160 288,147"/>
        <polygon points="437,111 505,111 505,126 437,126 437,111"/>
        <polygon points="443,124 500,124 500,137 443,137 443,124"/>
        <polygon points="438,137 505,137 505,151 438,151 438,137"/>
        <polygon points="438,148 505,148 505,165 438,165 438,148"/>
        <polygon points="371,388 473,388 473,404 371,404 371,388"/>
        <polygon points="408,401 436,401 436,414 408,414 408,401"/>
        <polygon points="370,414 472,414 472,428 370,428 370,414"/>
        <polygon points="377,425 466,425 466,439 377,439 377,425"/>
        <polygon points="425,639 560,639 560,648 425,648 425,639"/>
    </svg>
    <svg contentScriptType="text/ecmascript" xmlns:xlink="http://www.w3.org/1999/xlink" zoomAndPan="magnify" class="TextArea" contentStyleType="text/css" preserveAspectRatio="xMidYMid meet" xmlns="http://www.w3.org/2000/svg" version="1.0">
        <polygon points="68,33 68,67 194,67 194,33 68,33"/>
        <polygon points="168,53 168,70 238,70 238,53 168,53"/>
        <polygon points="22,97 22,122 47,147 106,147 132,122 132,110 128,97 22,97"/>
        <polygon points="176,95 173,110 173,122 174,136 189,148 231,148 248,136 251,122 251,110 245,95 176,95"/>
        <polygon points="288,86 285,112 285,127 288,160 386,160 412,151 427,112 429,103 429,86 288,86"/>
        <polygon points="437,111 437,126 438,165 505,165 505,111 437,111"/>
        <polygon points="371,388 370,414 370,428 377,439 466,439 472,428 473,404 473,388 371,388"/>
        <polygon points="425,639 425,648 560,648 560,639 425,639"/>
    </svg>
    <svg contentScriptType="text/ecmascript" xmlns:xlink="http://www.w3.org/1999/xlink" zoomAndPan="magnify" class="Balloon" contentStyleType="text/css" preserveAspectRatio="xMidYMid meet" xmlns="http://www.w3.org/2000/svg" version="1.0">
        <polygon points="63,50 63,52 63,54 63,56 63,58 63,60 63,62 63,64 63,66 63,68 63,70 63,72 63,73 63,74 63,75 63,75 63,75 65,82 67,87 71,87 75,87 79,87 83,87 87,87 91,87 95,87 99,87 103,87 107,87 111,87 115,87 119,87 122,87 125,87 128,87 131,87 134,87 137,87 140,87 143,87 148,87 153,87 158,87 163,87 168,87 173,87 177,87 181,87 185,87 189,86 191,86 192,86 193,86 194,86 194,86 195,83 196,78 197,73 199,69 199,65 199,61 199,57 199,52 199,44 199,39 199,34 195,28 186,28 180,28 174,28 171,28 167,28 163,28 159,28 155,28 150,28 145,28 140,28 135,28 128,28 119,28 110,28 101,28 92,28 84,28 77,28 71,28 65,29 64,30 63,31 63,33 63,35 63,37 63,39 63,41 63,43 63,45 63,47 63,49 63,50"/>
        <polygon points="163,70 163,75 166,79 169,83 172,86 177,86 180,86 183,86 186,86 189,86 192,86 195,86 198,86 201,86 204,86 207,86 210,86 213,86 216,86 219,86 221,86 223,86 225,86 227,86 229,86 231,86 233,86 235,86 237,86 238,86 239,86 240,86 241,86 241,86 241,86 241,86 241,83 241,79 242,75 243,71 243,67 243,63 243,59 243,54 241,49 235,48 229,48 223,48 217,48 211,48 205,48 199,48 193,48 187,48 181,48 174,48 171,48 168,48 163,55 163,60 163,65 163,70"/>
        <polygon points="30,89 26,89 22,89 19,89 15,93 11,96 11,100 10,104 10,108 10,111 10,114 10,119 10,124 11,129 13,135 16,140 18,142 21,144 24,146 27,148 31,149 35,151 39,152 43,154 47,156 49,157 51,158 53,158 55,158 57,158 59,158 61,158 63,158 65,158 67,158 68,158 68,158 68,158 68,158 68,158 68,158 68,158 68,158 74,158 78,158 82,158 86,158 90,157 94,156 98,155 102,154 106,153 110,152 114,151 118,150 122,149 126,147 130,146 134,143 139,140 143,137 145,134 147,131 148,128 149,125 150,121 150,117 149,113 148,109 147,104 146,101 144,98 142,95 138,92 135,89 131,89 127,89 123,89 119,89 115,89 111,89 107,89 103,89 99,89 95,89 91,89 87,89 83,89 79,89 75,89 71,89 67,89 63,89 59,89 55,89 51,89 47,89 43,89 39,89 35,89 30,89"/>
        <polygon points="175,91 171,94 169,97 167,100 165,103 163,105 162,107 161,110 160,114 160,118 160,122 161,125 162,128 164,131 166,134 168,137 170,139 172,141 174,143 176,145 178,146 179,147 182,149 186,152 188,153 192,153 195,153 198,153 200,153 203,153 206,153 211,153 213,153 216,153 219,153 222,153 225,153 227,153 229,153 231,153 236,151 240,148 243,146 246,144 249,142 251,140 253,137 254,134 256,131 257,128 258,125 259,122 259,119 258,115 258,112 257,109 256,106 255,104 254,102 253,100 252,98 251,96 250,94 250,94 243,90 240,89 237,89 233,88 230,88 227,88 224,88 221,88 218,88 215,88 212,88 209,88 206,88 203,88 200,88 196,88 192,88 188,88 184,89 180,90 175,91"/>
        <polygon points="278,89 278,92 278,95 278,98 278,101 278,104 278,107 278,110 278,113 278,116 278,119 278,122 278,125 278,128 278,131 278,134 278,137 278,140 278,143 278,146 278,149 278,152 278,155 278,158 278,162 278,164 278,166 278,168 278,169 278,170 278,170 285,171 290,171 293,171 296,171 299,171 302,171 305,171 308,171 311,171 314,171 317,171 320,171 323,171 326,171 329,171 332,171 335,171 338,171 341,171 344,171 347,171 350,171 353,171 357,171 361,171 365,171 369,171 373,170 375,170 379,170 382,170 385,170 389,169 392,169 395,168 398,168 401,167 404,167 408,166 412,165 414,164 417,157 420,148 421,146 421,144 421,143 421,142 421,141 422,139 423,137 425,133 425,131 427,127 428,123 430,118 431,116 432,114 433,113 434,112 435,111 436,110 436,109 436,109 438,103 440,97 438,93 436,89 434,85 434,85 429,81 426,81 423,81 420,81 417,81 414,81 411,81 408,81 405,81 402,81 399,81 396,81 393,81 390,81 387,81 384,81 381,81 378,81 375,81 372,81 369,81 366,81 363,81 360,81 357,81 355,81 350,81 346,81 341,81 337,81 332,81 328,81 324,81 319,81 314,81 309,81 305,81 301,81 297,81 292,81 288,81 284,83 281,86 278,89"/>
        <polygon points="436,106 432,112 430,115 428,118 426,121 423,124 421,127 421,130 421,133 421,138 421,141 422,144 424,148 425,151 427,154 429,157 431,160 432,162 433,163 433,163 433,163 437,170 443,170 448,170 453,170 458,170 461,170 464,170 467,170 470,170 473,170 476,170 479,170 483,170 487,170 491,170 495,170 500,170 505,170 506,170 510,164 511,160 513,156 514,153 516,150 517,147 518,144 519,142 519,140 519,138 519,136 519,134 519,132 519,130 518,128 516,124 515,122 514,120 513,118 512,116 511,114 510,112 510,112 510,112 510,112 510,112 510,112 510,112 510,112 509,108 503,106 498,106 493,106 488,105 483,105 478,104 473,104 468,104 463,104 458,104 453,104 448,105 443,106 436,106"/>
        <polygon points="372,382 368,384 365,386 362,388 360,391 357,394 355,396 352,400 351,403 350,406 349,410 349,415 349,420 350,425 352,429 354,433 357,436 360,438 363,440 366,442 369,444 372,445 375,446 379,448 382,449 386,451 391,452 396,453 401,454 406,454 411,455 411,455 417,455 421,454 425,454 429,453 433,453 437,452 441,452 445,451 449,450 453,449 456,448 459,447 462,446 465,445 467,445 469,444 471,443 473,442 475,441 477,440 478,439 478,439 478,433 478,425 478,418 478,418 478,418 478,418 478,418 482,414 485,410 488,406 490,402 489,399 487,396 485,393 482,390 479,387 477,385 473,383 470,382 467,381 464,379 460,378 456,377 452,376 448,376 444,375 440,375 436,375 432,374 428,374 424,374 420,374 416,374 412,374 408,374 404,375 400,375 396,376 392,377 388,378 384,379 380,380 376,381 372,382"/>
        <polygon points="426,634 424,634 422,634 421,634 420,634 420,634 420,634 420,634 420,634 420,634 420,634 420,634 420,637 420,641 420,645 420,649 423,653 427,653 431,653 435,653 439,653 443,653 448,653 453,653 458,653 463,653 468,653 473,653 478,653 483,653 488,653 493,653 498,653 502,653 506,653 510,653 514,653 518,653 523,653 528,653 533,653 538,653 543,653 548,653 553,653 558,653 558,653 565,646 565,639 561,634 557,633 554,633 551,633 548,633 545,633 542,633 539,633 536,633 533,633 530,633 527,633 524,633 521,633 518,633 515,633 512,633 509,633 506,633 503,633 500,633 497,633 494,633 491,633 488,633 485,633 482,633 479,633 476,633 473,633 470,633 467,633 464,633 461,633 458,633 455,633 452,633 449,633 446,633 443,633 440,633 437,633 434,633 430,633 426,634"/>
    </svg>
    <desc method="Christophe Rigaud's extractor" lastModificationDate="Fri Jul 19 12:17:22 CEST 2013"/>
</svg>
