<?xml version="1.0" encoding="UTF-8" standalone="no"?>
<svg width="569" xmlns="http://www.w3.org/2000/svg" version="1.0" height="661">
  <title>CYB_COSMOZONE_010</title>
  <svg contentScriptType="text/ecmascript" zoomAndPan="magnify" contentStyleType="text/css" class="Page" preserveAspectRatio="xMidYMid meet" version="1.0">
    <image xmlns:xlink="http://www.w3.org/1999/xlink" x="0" y="0" width="569" height="661" xlink:href="CYB_COSMOZONE_010.jpg" xlink:type="simple" xlink:actuate="onLoad" preserveAspectRatio="xMidYMid meet" xlink:show="embed"/>
  </svg>
  <style type="text/css" xml:space="preserve">
        * { stroke-width: 2; stroke-linejoin: round; }
        .Unclassified { fill: orange; stroke: none; opacity: 1.0; visibility: hidden; }
        .Noise { fill: pink; stroke: none; opacity: 0.2; visibility: hidden; }
        .Panel { fill: red; stroke: none; opacity: 0.5; visibility: visible; image-rendering: optimizeSpeed; }
        .Line { fill: green; stroke: none; opacity: 0.5; visibility: visible; image-rendering: optimizeSpeed; }
        .TextArea { fill: none; stroke: green; opacity: 0.5; visibility: visible; }
        .Balloon { fill: none; stroke: red; opacity: 1; visibility: visible; image-rendering: optimizeSpeed; }
        .Letter { fill: blue; stroke: none; opacity: 0.2; visibility: hidden; }
        .Object { fill: yellow; stroke: none; opacity: 0.5; visibility: visible; image-rendering: optimizeSpeed; }
        .Page { fill: white; stroke: none; opacity: 0.5; visibility: visible; }
        polygon:hover { opacity:0.2; }
</style>
  <svg xmlns="http://www.w3.org/2000/svg" contentScriptType="text/ecmascript" zoomAndPan="magnify" contentStyleType="text/css" class="Balloon" preserveAspectRatio="xMidYMid meet" version="1.0">
    <polygon points="293,370 293,498 292,499 292,513 293,514 293,539 292,540 293,541 293,542 292,543 292,544 293,545 292,546 292,547 293,548 292,549 292,550 293,551 293,552 292,553 292,555 293,556 293,559 292,560 293,561 293,569 292,570 292,573 293,574 293,575 292,576 292,631 320,631 320,629 321,628 321,623 320,623 319,622 317,622 315,620 315,618 314,618 311,621 309,621 307,619 307,618 306,617 301,617 299,615 299,614 298,613 298,612 299,611 299,609 300,608 300,606 299,606 297,604 297,603 296,602 296,598 295,597 295,593 297,591 301,591 301,590 302,589 302,586 303,585 303,584 301,582 301,581 300,580 300,575 301,574 301,572 302,571 302,570 307,565 308,565 309,564 311,564 312,563 313,563 314,562 320,562 321,561 323,561 324,562 327,562 328,563 329,563 333,567 334,567 336,565 337,565 337,564 333,564 332,563 329,563 328,562 326,562 325,561 324,561 323,560 321,560 320,559 319,559 318,558 317,558 316,557 316,556 313,559 311,559 310,560 309,559 306,559 303,556 303,555 302,554 302,549 303,548 303,547 307,543 306,542 306,540 305,539 305,537 304,536 304,533 303,532 303,527 302,526 302,520 301,519 301,513 300,512 300,511 302,509 303,509 304,508 304,507 305,506 306,506 309,503 310,503 313,500 314,500 314,493 313,492 313,489 316,486 317,486 318,485 320,485 321,484 323,484 324,483 326,483 327,482 329,482 330,481 332,481 333,480 334,480 335,479 338,479 339,478 345,478 346,479 352,479 353,478 355,478 356,479 362,479 363,480 367,480 368,479 369,479 370,480 372,480 373,481 376,481 377,482 387,482 388,483 391,483 394,486 394,487 395,488 395,492 396,493 396,497 397,498 397,500 398,501 398,505 399,506 399,512 396,515 395,514 392,514 390,512 390,522 391,523 390,524 390,536 389,537 389,543 388,544 388,549 390,551 390,553 391,554 391,556 390,557 390,558 389,559 388,559 386,561 384,561 383,562 381,562 380,563 377,563 377,564 378,564 379,565 379,566 381,568 381,569 382,570 382,572 383,573 383,577 380,580 380,582 382,582 383,583 383,581 385,579 385,577 386,576 386,574 389,571 390,571 391,570 391,568 394,565 395,565 398,568 398,571 397,572 397,575 398,576 398,577 399,578 399,586 398,587 398,588 396,590 396,593 392,597 390,597 389,598 385,598 384,599 378,599 380,599 382,601 382,602 383,603 383,613 384,614 383,615 383,618 382,619 381,619 380,620 380,624 379,625 379,629 378,630 378,631 476,631 476,628 475,627 475,624 474,623 472,623 470,621 470,619 469,618 469,616 473,612 473,611 472,610 472,609 471,608 471,595 472,594 472,591 473,590 473,588 474,587 474,585 475,584 475,582 474,582 473,581 473,579 474,578 474,576 480,570 481,570 482,569 484,569 485,568 488,568 489,569 494,569 495,570 495,569 494,569 493,568 484,568 483,567 475,567 474,566 471,566 470,565 467,565 466,564 464,564 460,560 460,559 459,558 460,557 460,556 461,555 461,554 462,553 462,552 463,551 462,550 462,547 461,546 461,543 460,542 460,538 459,537 459,531 458,530 458,525 457,524 457,521 456,522 454,522 453,521 454,520 453,520 452,521 450,521 449,522 448,522 447,523 446,523 444,521 444,517 445,516 445,514 446,513 446,512 448,510 448,509 443,509 442,510 438,510 437,509 437,508 439,506 439,505 440,504 440,503 444,499 444,498 443,498 442,497 439,497 438,496 437,496 436,495 437,494 437,493 438,492 438,491 439,490 440,490 441,491 441,492 440,493 440,494 441,494 442,495 444,495 445,496 446,496 448,498 443,503 443,504 442,505 442,507 443,506 446,506 447,507 449,507 451,509 451,510 449,512 449,513 448,514 448,516 447,517 447,519 449,519 450,518 457,518 457,516 456,517 454,517 453,516 455,514 456,514 457,513 459,513 460,512 463,512 464,511 466,511 467,510 471,510 472,509 480,509 481,508 491,508 492,507 525,507 526,508 539,508 540,509 541,509 540,508 540,504 539,503 539,499 538,498 538,496 537,495 537,494 536,493 536,491 535,490 535,489 534,488 534,487 533,486 533,485 532,484 532,483 526,477 525,477 522,474 521,474 519,472 518,472 517,471 515,471 514,470 511,470 510,469 499,469 498,468 497,469 496,469 495,468 494,469 487,469 486,470 480,470 479,471 471,471 470,472 464,472 463,473 458,473 457,474 456,473 455,474 453,474 452,475 449,475 448,476 447,476 446,477 444,477 443,478 442,478 441,479 440,479 439,480 437,480 436,479 437,478 438,478 439,477 440,477 441,476 442,476 443,475 445,475 446,474 447,474 448,473 450,473 451,472 453,472 454,471 457,471 458,470 463,470 464,469 472,469 473,468 481,468 482,467 487,467 488,466 512,466 513,467 516,467 517,468 519,468 521,470 522,470 525,473 526,473 535,482 535,483 537,485 537,487 538,488 538,489 539,490 539,491 540,492 540,494 541,495 541,496 542,497 542,500 543,501 543,506 544,507 544,510 545,511 545,530 544,531 544,533 543,534 543,538 542,539 542,542 541,543 541,544 540,545 540,546 539,547 539,548 537,550 537,551 536,552 536,553 529,560 528,560 526,562 525,562 523,564 522,564 521,565 519,565 518,566 517,566 516,567 514,567 513,568 510,568 510,570 511,571 525,571 526,572 527,572 528,573 529,573 533,577 533,580 530,583 529,583 528,584 528,586 529,587 529,591 530,592 530,606 531,607 531,608 529,610 528,610 530,612 530,617 529,618 529,619 528,620 527,620 525,622 524,622 523,623 523,629 524,630 524,631 542,631 543,630 544,631 547,631 548,630 549,631 550,631 551,630 554,630 555,629 555,588 556,587 556,585 555,584 556,583 556,578 555,577 556,576 556,573 555,572 555,568 556,567 555,566 556,565 556,517 557,516 557,515 556,514 556,510 557,509 556,508 556,490 557,489 557,488 556,487 556,486 557,485 557,484 556,483 557,482 557,477 556,476 556,474 557,473 556,472 556,469 557,468 557,458 556,457 556,454 557,453 557,403 554,406 553,406 552,407 550,407 549,408 548,408 548,409 549,410 549,412 548,413 547,413 547,414 548,415 548,418 546,420 546,421 545,422 544,422 544,426 549,431 549,433 548,434 548,436 547,437 547,439 545,441 544,440 544,437 545,436 545,431 542,428 542,427 541,426 541,423 542,422 542,421 545,418 545,414 544,413 541,413 540,412 540,410 542,408 539,408 538,407 536,407 535,406 534,406 527,399 527,398 525,396 525,394 524,393 524,390 523,389 523,382 524,381 524,379 525,378 525,376 527,374 527,373 528,372 528,371 529,370 293,370">
      <metadata tailDirection="" confidence="0.0" id="CYB_COSMOZONE_010_balloon_0" tailTip=""/>
    </polygon>
    <polygon points="400,372 401,371 404,371 405,372 406,371 442,371 443,372 449,372 450,373 455,373 456,374 459,374 460,375 463,375 464,376 465,376 466,377 468,377 469,378 470,378 471,379 473,379 474,380 475,380 478,383 479,383 480,384 481,384 482,385 482,386 483,386 488,391 488,392 492,396 492,397 493,398 493,399 494,400 494,402 495,403 495,406 496,407 496,414 497,415 497,419 496,420 496,424 495,425 495,427 494,428 494,429 492,431 492,432 491,433 491,434 484,441 483,441 481,443 479,443 478,444 477,444 475,446 473,446 472,447 471,447 470,448 469,448 468,449 465,449 464,450 462,450 461,451 459,451 458,452 455,452 454,453 451,453 450,454 448,454 447,455 443,455 442,456 437,456 436,457 423,457 422,458 422,460 421,461 421,464 420,465 420,466 419,467 419,468 417,470 417,471 416,472 415,472 415,473 414,474 413,474 411,476 410,476 407,479 406,478 406,476 408,474 408,472 409,471 409,468 410,467 410,463 409,462 409,459 408,458 406,458 405,457 396,457 395,456 391,456 390,455 388,455 387,454 385,454 384,453 382,453 381,452 378,452 377,451 376,451 375,450 373,450 372,449 371,449 370,448 369,448 368,447 367,447 366,446 365,446 362,443 361,443 360,442 359,442 357,440 356,440 349,433 349,432 348,431 348,430 347,429 347,428 346,427 346,425 345,424 345,408 346,407 346,404 347,403 347,401 348,400 348,398 349,397 349,396 355,390 355,389 356,388 357,388 358,387 359,387 362,384 363,384 364,383 365,383 367,381 368,381 369,380 370,380 371,379 372,379 373,378 375,378 376,377 379,377 380,376 382,376 383,375 386,375 387,374 391,374 392,373 395,373 396,372 400,372">
      <metadata tailDirection="" confidence="0.0" id="CYB_COSMOZONE_010_balloon_1" tailTip=""/>
    </polygon>
    <polygon points="426,375 425,376 399,376 398,377 395,377 394,378 390,378 389,379 386,379 385,380 382,380 381,381 379,381 378,382 376,382 375,383 373,383 372,384 371,384 369,386 368,386 366,388 365,388 364,389 363,389 361,391 360,391 353,398 353,400 352,401 352,403 351,404 351,406 350,407 350,412 349,413 349,415 350,416 350,417 349,418 350,419 350,425 351,426 351,427 352,428 352,429 353,430 353,431 355,433 355,434 356,435 357,435 359,437 360,437 362,439 363,439 365,441 366,441 368,443 369,443 371,445 373,445 374,446 376,446 377,447 378,447 379,448 381,448 382,449 384,449 385,450 388,450 389,451 391,451 392,452 397,452 398,453 408,453 409,454 410,454 412,456 412,457 413,458 413,460 414,461 414,469 413,470 415,468 415,467 416,466 416,465 417,464 417,462 418,461 418,455 420,453 427,453 428,452 439,452 440,451 444,451 445,450 448,450 449,449 452,449 453,448 456,448 457,447 459,447 460,446 461,446 462,445 465,445 466,444 468,444 469,443 470,443 471,442 473,442 474,441 475,441 476,440 477,440 479,438 480,438 482,436 483,436 484,435 484,434 488,430 488,429 489,428 489,427 490,426 490,425 491,424 491,422 492,421 492,411 491,410 491,406 490,405 490,402 489,401 489,399 487,397 487,396 484,393 484,392 483,391 482,391 477,386 476,386 475,385 474,385 472,383 470,383 469,382 468,382 467,381 465,381 464,380 463,380 462,379 460,379 459,378 455,378 454,377 451,377 450,376 442,376 441,375 426,375">
      <metadata tailDirection="" confidence="0.0" id="CYB_COSMOZONE_010_balloon_2" tailTip=""/>
    </polygon>
    <polygon points="473,104 472,105 461,105 460,106 455,106 454,107 451,107 450,108 449,108 448,109 445,109 444,110 441,110 440,111 439,111 438,112 437,112 436,113 435,113 432,116 431,116 424,123 424,124 423,125 423,126 422,127 422,129 421,130 421,140 422,141 422,144 423,145 423,146 424,147 424,148 425,149 425,150 428,153 428,154 431,157 432,157 433,158 434,158 435,159 436,159 438,161 440,161 441,162 443,162 444,163 447,163 448,164 450,164 451,165 452,165 453,166 456,166 457,167 457,168 456,169 456,173 457,174 457,175 458,176 458,177 459,178 459,179 459,177 458,176 458,168 460,166 461,166 462,167 479,167 480,166 487,166 488,165 492,165 493,164 496,164 497,163 498,163 499,162 501,162 503,160 504,160 505,159 506,159 509,156 510,156 511,155 512,155 512,154 514,152 514,151 516,149 516,147 517,146 517,144 518,143 518,140 519,139 519,135 518,134 518,129 517,128 517,126 516,125 516,124 513,121 513,120 507,114 506,114 504,112 503,112 502,111 501,111 500,110 498,110 497,109 496,109 495,108 494,108 493,107 490,107 489,106 484,106 483,105 478,105 477,104 473,104">
      <metadata tailDirection="" confidence="0.0" id="CYB_COSMOZONE_010_balloon_3" tailTip=""/>
    </polygon>
    <polygon points="189,89 188,90 186,90 185,91 183,91 182,92 180,92 179,93 178,93 177,94 176,94 175,95 174,95 171,98 170,98 164,104 164,105 163,106 163,107 161,109 161,111 160,112 161,113 161,114 160,115 160,121 161,122 161,124 162,125 162,127 163,128 163,129 164,130 164,131 165,132 165,133 168,136 168,137 169,137 172,140 173,140 174,141 175,141 176,142 177,142 178,143 180,143 181,144 183,144 184,145 186,145 187,146 189,146 190,147 192,147 193,148 195,148 196,149 196,150 195,151 195,154 196,155 196,156 197,157 197,158 198,159 198,160 198,157 197,156 197,150 199,148 201,148 202,149 215,149 216,148 217,149 218,149 219,148 226,148 227,147 231,147 232,146 235,146 236,145 237,145 238,144 240,144 241,143 242,143 244,141 245,141 247,139 248,139 250,137 251,137 252,136 252,135 254,133 254,132 255,131 255,130 256,129 256,127 257,126 257,122 258,121 258,117 257,116 257,111 256,110 256,108 255,107 255,106 254,105 254,104 252,102 252,101 250,99 249,99 245,95 244,95 242,93 240,93 239,92 238,92 237,91 235,91 234,90 233,90 232,89 189,89">
      <metadata tailDirection="" confidence="0.0" id="CYB_COSMOZONE_010_balloon_4" tailTip=""/>
    </polygon>
    <polygon points="72,89 71,90 11,90 11,127 12,128 11,129 11,136 13,138 14,138 16,140 17,140 20,143 21,143 23,145 24,145 26,147 27,147 28,148 29,148 30,149 33,149 34,150 35,150 36,151 37,151 38,152 40,152 41,153 45,153 46,154 47,154 48,155 52,155 53,156 64,156 65,157 67,157 69,159 69,160 70,161 70,163 71,164 71,173 70,174 71,173 71,172 73,170 73,169 74,168 74,166 75,165 75,159 78,156 91,156 92,155 98,155 99,154 102,154 103,153 106,153 107,152 111,152 112,151 114,151 115,150 117,150 118,149 120,149 121,148 123,148 124,147 126,147 127,146 129,146 130,145 131,145 133,143 135,143 137,141 138,141 145,134 145,133 146,132 146,131 147,130 147,129 148,128 148,125 149,124 149,113 148,112 148,107 147,106 147,104 146,103 146,102 145,101 145,100 142,97 142,96 139,93 138,93 135,90 132,90 131,89 130,89 129,90 126,90 125,89 123,89 122,90 121,89 120,90 111,90 110,89 109,90 97,90 96,89 95,90 94,90 93,89 92,89 91,90 90,90 89,89 88,89 87,90 73,90 72,89">
      <metadata tailDirection="" confidence="0.0" id="CYB_COSMOZONE_010_balloon_5" tailTip=""/>
    </polygon>
  </svg>
  <svg contentScriptType="text/ecmascript" xmlns:xlink="http://www.w3.org/1999/xlink" zoomAndPan="magnify" class="TextArea" contentStyleType="text/css" preserveAspectRatio="xMidYMid meet" xmlns="http://www.w3.org/2000/svg" version="1.0">
        <polygon points="68,33 68,67 194,67 194,33 68,33"/>
        <polygon points="168,53 168,70 238,70 238,53 168,53"/>
        <polygon points="22,97 22,122 47,147 106,147 132,122 132,110 128,97 22,97"/>
        <polygon points="176,95 173,110 173,122 174,136 189,148 231,148 248,136 251,122 251,110 245,95 176,95"/>
        <polygon points="288,86 285,112 285,127 288,160 386,160 412,151 427,112 429,103 429,86 288,86"/>
        <polygon points="437,111 437,126 438,165 505,165 505,111 437,111"/>
        <polygon points="371,388 370,414 370,428 377,439 466,439 472,428 473,404 473,388 371,388"/>
        <polygon points="425,639 425,648 560,648 560,639 425,639"/>
    </svg>
</svg>
