<?xml version="1.0" encoding="UTF-8" standalone="no"?>
<!-- Created with Inkscape (http://www.inkscape.org/) -->

<svg
   xmlns:dc="http://purl.org/dc/elements/1.1/"
   xmlns:cc="http://creativecommons.org/ns#"
   xmlns:rdf="http://www.w3.org/1999/02/22-rdf-syntax-ns#"
   xmlns:svg="http://www.w3.org/2000/svg"
   xmlns="http://www.w3.org/2000/svg"
   xmlns:sodipodi="http://sodipodi.sourceforge.net/DTD/sodipodi-0.dtd"
   xmlns:inkscape="http://www.inkscape.org/namespaces/inkscape"
   id="svg2"
   version="1.1"
   inkscape:version="0.48.1 r9760"
   width="585"
   height="212.8125"
   xml:space="preserve"
   sodipodi:docname="model_step2ter_new.pdf"><metadata
     id="metadata8"><rdf:RDF><cc:Work
         rdf:about=""><dc:format>image/svg+xml</dc:format><dc:type
           rdf:resource="http://purl.org/dc/dcmitype/StillImage" /><dc:title></dc:title></cc:Work></rdf:RDF></metadata><defs
     id="defs6" /><sodipodi:namedview
     pagecolor="#ffffff"
     bordercolor="#666666"
     borderopacity="1"
     objecttolerance="10"
     gridtolerance="10"
     guidetolerance="10"
     inkscape:pageopacity="0"
     inkscape:pageshadow="2"
     inkscape:window-width="1502"
     inkscape:window-height="819"
     id="namedview4"
     showgrid="false"
     inkscape:zoom="1.5760684"
     inkscape:cx="323.82627"
     inkscape:cy="45.581506"
     inkscape:window-x="0"
     inkscape:window-y="26"
     inkscape:window-maximized="0"
     inkscape:current-layer="g10" /><g
     id="g10"
     inkscape:groupmode="layer"
     inkscape:label="model_step2ter_new"
     transform="matrix(1.25,0,0,-1.25,0,212.8125)"><path
       d="m 466.3,18.701 c 0,9.273 -17.77,16.79 -39.69,16.79 -21.91,0 -39.68,-7.517 -39.68,-16.79 0,-9.2727 17.77,-16.7897 39.68,-16.7897 21.92,0 39.69,7.517 39.69,16.7897 z"
       style="fill:#ffffff;fill-opacity:1;fill-rule:evenodd;stroke:none"
       id="path12" /><path
       d="m 466.3,18.701 c 0,9.273 -17.77,16.79 -39.69,16.79 -21.91,0 -39.68,-7.517 -39.68,-16.79 0,-9.2727 17.77,-16.7897 39.68,-16.7897 21.92,0 39.69,7.517 39.69,16.7897 z"
       style="fill:none;stroke:#000000;stroke-opacity:1;stroke-width:1.2;stroke-linecap:round;stroke-linejoin:round;stroke-miterlimit:10;stroke-dasharray:none"
       id="path14" /><text
       transform="matrix(1,0,0,-1,404.94,22.301)"
       id="text16"><tspan
         style="fill:#000000;fill-opacity:1;fill-rule:nonzero;stroke:none;font-family:Arial;font-variant:normal;font-weight:bold;font-size:12.00024;writing-mode:lr;-inkscape-font-specification:Arial Bold"
         x="0 8.00424 15.33456 22.66488 29.338776 36.012672"
         y="0"
         sodipodi:role="line"
         id="tspan18">Spoken</tspan></text>
<text
       transform="matrix(1,0,0,-1,401.94,7.901)"
       id="text20"><tspan
         style="fill:#000000;fill-opacity:1;fill-rule:nonzero;stroke:none;font-family:Arial;font-variant:normal;font-weight:bold;font-size:12.00024;writing-mode:lr;-inkscape-font-specification:Arial Bold"
         x="0 7.33032 14.004216 20.678112 24.674112 32.004432 35.338536 42.668856"
         y="0"
         sodipodi:role="line"
         id="tspan22">TextLine</tspan></text>
<path
       d="m 466.3,152.26 c 0,9.27 -17.77,16.79 -39.69,16.79 -21.91,0 -39.68,-7.52 -39.68,-16.79 0,-9.27 17.77,-16.79 39.68,-16.79 21.92,0 39.69,7.52 39.69,16.79 z"
       style="fill:#ffffff;fill-opacity:1;fill-rule:evenodd;stroke:none"
       id="path24" /><path
       d="m 466.3,152.26 c 0,9.27 -17.77,16.79 -39.69,16.79 -21.91,0 -39.68,-7.52 -39.68,-16.79 0,-9.27 17.77,-16.79 39.68,-16.79 21.92,0 39.69,7.52 39.69,16.79 z"
       style="fill:none;stroke:#000000;stroke-opacity:1;stroke-width:1.2;stroke-linecap:round;stroke-linejoin:round;stroke-miterlimit:10;stroke-dasharray:none"
       id="path26" /><text
       transform="matrix(1,0,0,-1,401.94,148.66)"
       id="text28"><tspan
         style="fill:#000000;fill-opacity:1;fill-rule:nonzero;stroke:none;font-family:Arial;font-variant:normal;font-weight:bold;font-size:12.00024;writing-mode:lr;-inkscape-font-specification:Arial Bold"
         x="0 7.33032 14.004216 20.678112 24.674112 32.004432 35.338536 42.668856"
         y="0"
         sodipodi:role="line"
         id="tspan30">TextLine</tspan></text>
<path
       d="m 344.41,152.26 c 0,9.27 -17.77,16.79 -39.69,16.79 -21.91,0 -39.68,-7.52 -39.68,-16.79 0,-9.27 17.77,-16.79 39.68,-16.79 21.92,0 39.69,7.52 39.69,16.79 z"
       style="fill:#ffffff;fill-opacity:1;fill-rule:evenodd;stroke:none"
       id="path32" /><path
       d="m 344.41,152.26 c 0,9.27 -17.77,16.79 -39.69,16.79 -21.91,0 -39.68,-7.52 -39.68,-16.79 0,-9.27 17.77,-16.79 39.68,-16.79 21.92,0 39.69,7.52 39.69,16.79 z"
       style="fill:none;stroke:#000000;stroke-opacity:1;stroke-width:1.2;stroke-linecap:round;stroke-linejoin:round;stroke-miterlimit:10;stroke-dasharray:none"
       id="path34" /><text
       transform="matrix(1,0,0,-1,282.73,148.66)"
       id="text36"><tspan
         style="fill:#000000;fill-opacity:1;fill-rule:nonzero;stroke:none;font-family:Arial;font-variant:normal;font-weight:bold;font-size:12.00024;writing-mode:lr;-inkscape-font-specification:Arial Bold"
         x="0 8.66592 15.339816 18.67392 22.008024 29.338344 36.668664"
         y="0"
         sodipodi:role="line"
         id="tspan38">Balloon</tspan></text>
<path
       d="m 344.41,85.481 c 0,9.272 -17.77,16.789 -39.69,16.789 -21.91,0 -39.68,-7.517 -39.68,-16.789 0,-9.273 17.77,-16.79 39.68,-16.79 21.92,0 39.69,7.517 39.69,16.79 z"
       style="fill:#ffffff;fill-opacity:1;fill-rule:evenodd;stroke:none"
       id="path40" /><path
       d="m 344.41,85.481 c 0,9.272 -17.77,16.789 -39.69,16.789 -21.91,0 -39.68,-7.517 -39.68,-16.789 0,-9.273 17.77,-16.79 39.68,-16.79 21.92,0 39.69,7.517 39.69,16.79 z"
       style="fill:none;stroke:#000000;stroke-opacity:1;stroke-width:1.2;stroke-linecap:round;stroke-linejoin:round;stroke-miterlimit:10;stroke-dasharray:none"
       id="path42" /><text
       transform="matrix(1,0,0,-1,278.71,89.081)"
       id="text44"><tspan
         style="fill:#000000;fill-opacity:1;fill-rule:nonzero;stroke:none;font-family:Arial;font-variant:normal;font-weight:bold;font-size:12.00024;writing-mode:lr;-inkscape-font-specification:Arial Bold"
         x="0 8.66592 15.339816 20.009808 24.6798 31.353696 35.349696 38.6838 45.357696"
         y="0"
         sodipodi:role="line"
         id="tspan46">Narrative</tspan></text>
<text
       transform="matrix(1,0,0,-1,282.73,74.681)"
       id="text48"><tspan
         style="fill:#000000;fill-opacity:1;fill-rule:nonzero;stroke:none;font-family:Arial;font-variant:normal;font-weight:bold;font-size:12.00024;writing-mode:lr;-inkscape-font-specification:Arial Bold"
         x="0 8.66592 15.339816 18.67392 22.008024 29.338344 36.668664"
         y="0"
         sodipodi:role="line"
         id="tspan50">Balloon</tspan></text>
<path
       d="m 344.41,18.701 c 0,9.273 -17.77,16.79 -39.69,16.79 -21.91,0 -39.68,-7.517 -39.68,-16.79 0,-9.2727 17.77,-16.7897 39.68,-16.7897 21.92,0 39.69,7.517 39.69,16.7897 z"
       style="fill:#ffffff;fill-opacity:1;fill-rule:evenodd;stroke:none"
       id="path52" /><path
       d="m 344.41,18.701 c 0,9.273 -17.77,16.79 -39.69,16.79 -21.91,0 -39.68,-7.517 -39.68,-16.79 0,-9.2727 17.77,-16.7897 39.68,-16.7897 21.92,0 39.69,7.517 39.69,16.7897 z"
       style="fill:none;stroke:#000000;stroke-opacity:1;stroke-width:1.2;stroke-linecap:round;stroke-linejoin:round;stroke-miterlimit:10;stroke-dasharray:none"
       id="path54" /><text
       transform="matrix(1,0,0,-1,283.38,22.301)"
       id="text56"><tspan
         style="fill:#000000;fill-opacity:1;fill-rule:nonzero;stroke:none;font-family:Arial;font-variant:normal;font-weight:bold;font-size:12.00024;writing-mode:lr;-inkscape-font-specification:Arial Bold"
         x="0 8.00424 15.33456 22.008456 28.682352 35.356248"
         y="0"
         sodipodi:role="line"
         id="tspan58">Speech</tspan></text>
<text
       transform="matrix(1,0,0,-1,282.73,7.901)"
       id="text60"><tspan
         style="fill:#000000;fill-opacity:1;fill-rule:nonzero;stroke:none;font-family:Arial;font-variant:normal;font-weight:bold;font-size:12.00024;writing-mode:lr;-inkscape-font-specification:Arial Bold"
         x="0 8.66592 15.339816 18.67392 22.008024 29.338344 36.668664"
         y="0"
         sodipodi:role="line"
         id="tspan62">Balloon</tspan></text>
<path
       d="m 80.57,152.26 c 0,9.27 -17.768,16.79 -39.685,16.79 -21.917,0 -39.685,-7.52 -39.685,-16.79 0,-9.27 17.768,-16.79 39.685,-16.79 21.917,0 39.685,7.52 39.685,16.79 z"
       style="fill:#ffffff;fill-opacity:1;fill-rule:evenodd;stroke:none"
       id="path64" /><path
       d="m 80.57,152.26 c 0,9.27 -17.768,16.79 -39.685,16.79 -21.917,0 -39.685,-7.52 -39.685,-16.79 0,-9.27 17.768,-16.79 39.685,-16.79 21.917,0 39.685,7.52 39.685,16.79 z"
       style="fill:none;stroke:#000000;stroke-opacity:1;stroke-width:1.2;stroke-linecap:round;stroke-linejoin:round;stroke-miterlimit:10;stroke-dasharray:none"
       id="path66" /><text
       transform="matrix(1,0,0,-1,12.871,148.66)"
       id="text68"><tspan
         style="fill:#000000;fill-opacity:1;fill-rule:nonzero;stroke:none;font-family:Arial;font-variant:normal;font-weight:bold;font-size:12.00024;writing-mode:lr;-inkscape-font-specification:Arial Bold"
         x="0 8.66592 15.99624 22.670136 27.340128 34.014024 40.68792 44.68392 51.357816"
         y="0"
         sodipodi:role="line"
         id="tspan70">Character</tspan></text>
<path
       d="m 80.57,18.701 c 0,9.273 -17.768,16.79 -39.685,16.79 C 18.968,35.491 1.2,27.974 1.2,18.701 1.2,9.4283 18.968,1.9113 40.885,1.9113 c 21.917,0 39.685,7.517 39.685,16.7897 z"
       style="fill:#ffffff;fill-opacity:1;fill-rule:evenodd;stroke:none"
       id="path72" /><path
       d="m 80.57,18.701 c 0,9.273 -17.768,16.79 -39.685,16.79 C 18.968,35.491 1.2,27.974 1.2,18.701 1.2,9.4283 18.968,1.9113 40.885,1.9113 c 21.917,0 39.685,7.517 39.685,16.7897 z"
       style="fill:none;stroke:#000000;stroke-opacity:1;stroke-width:1.2;stroke-linecap:round;stroke-linejoin:round;stroke-miterlimit:10;stroke-dasharray:none"
       id="path74" /><text
       transform="matrix(1,0,0,-1,17.535,15.101)"
       id="text76"><tspan
         style="fill:#000000;fill-opacity:1;fill-rule:nonzero;stroke:none;font-family:Arial;font-variant:normal;font-weight:bold;font-size:12.00024;writing-mode:lr;-inkscape-font-specification:Arial Bold"
         x="0 8.00424 15.33456 22.008456 28.682352 35.356248 42.030144"
         y="0"
         sodipodi:role="line"
         id="tspan78">Speaker</tspan></text>
<path
       d="m 304.72,35.491 0,22.97"
       style="fill:none;stroke:#000000;stroke-opacity:1;stroke-width:1.2;stroke-linecap:round;stroke-linejoin:round;stroke-miterlimit:10;stroke-dasharray:none"
       id="path80" /><path
       d="m 301,57.531 3.72,11.16 3.72,-11.16 -7.44,0 z"
       style="fill:#000000;fill-opacity:1;fill-rule:evenodd;stroke:none"
       id="path82" /><path
       d="m 298.5,42.683 12.449,0 0,9.5999 -12.449,0 0,-9.5999 z"
       style="fill:#ffffff;fill-opacity:1;fill-rule:evenodd;stroke:none"
       id="path84" /><text
       transform="matrix(1,0,0,-1,298.5,45.083)"
       id="text86"><tspan
         style="fill:#000000;fill-opacity:1;fill-rule:nonzero;stroke:none;font-family:Arial;font-variant:normal;font-weight:bold;font-size:7.99992;writing-mode:lr;-inkscape-font-specification:Arial Bold"
         x="0 2.222568 6.671736"
         y="0"
         sodipodi:role="line"
         id="tspan88">isA</tspan></text>
<path
       d="m 304.72,102.27 0,22.97"
       style="fill:none;stroke:#000000;stroke-opacity:1;stroke-width:1.2;stroke-linecap:round;stroke-linejoin:round;stroke-miterlimit:10;stroke-dasharray:none"
       id="path90" /><path
       d="m 301,124.31 3.72,11.16 3.72,-11.16 -7.44,0 z"
       style="fill:#000000;fill-opacity:1;fill-rule:evenodd;stroke:none"
       id="path92" /><path
       d="m 298.5,109.3 12.449,0 0,9.5999 -12.449,0 0,-9.5999 z"
       style="fill:#ffffff;fill-opacity:1;fill-rule:evenodd;stroke:none"
       id="path94" /><text
       transform="matrix(1,0,0,-1,298.5,111.7)"
       id="text96"><tspan
         style="fill:#000000;fill-opacity:1;fill-rule:nonzero;stroke:none;font-family:Arial;font-variant:normal;font-weight:bold;font-size:7.99992;writing-mode:lr;-inkscape-font-specification:Arial Bold"
         x="0 2.222568 6.671736"
         y="0"
         sodipodi:role="line"
         id="tspan98">isA</tspan></text>
<path
       d="m 40.885,35.491 0,89.749"
       style="fill:none;stroke:#000000;stroke-opacity:1;stroke-width:1.2;stroke-linecap:round;stroke-linejoin:round;stroke-miterlimit:10;stroke-dasharray:none"
       id="path100" /><path
       d="m 37.165,124.31 3.72,11.16 3.72,-11.16 -7.44,0 z"
       style="fill:#000000;fill-opacity:1;fill-rule:evenodd;stroke:none"
       id="path102" /><path
       d="m 34.661,80.681 12.449,0 0,9.5999 -12.449,0 0,-9.5999 z"
       style="fill:#ffffff;fill-opacity:1;fill-rule:evenodd;stroke:none"
       id="path104" /><text
       transform="matrix(1,0,0,-1,34.661,83.08)"
       id="text106"><tspan
         style="fill:#000000;fill-opacity:1;fill-rule:nonzero;stroke:none;font-family:Arial;font-variant:normal;font-weight:bold;font-size:7.99992;writing-mode:lr;-inkscape-font-specification:Arial Bold"
         x="0 2.222568 6.671736"
         y="0"
         sodipodi:role="line"
         id="tspan108">isA</tspan></text>
<path
       d="m 426.61,102.27 0,22.97"
       style="fill:none;stroke:#000000;stroke-opacity:1;stroke-width:1.2;stroke-linecap:round;stroke-linejoin:round;stroke-miterlimit:10;stroke-dasharray:none"
       id="path110" /><path
       d="m 422.89,124.31 3.72,11.16 3.72,-11.16 -7.44,0 z"
       style="fill:#000000;fill-opacity:1;fill-rule:evenodd;stroke:none"
       id="path112" /><path
       d="m 420.39,109.3 12.449,0 0,9.5999 -12.449,0 0,-9.5999 z"
       style="fill:#ffffff;fill-opacity:1;fill-rule:evenodd;stroke:none"
       id="path114" /><text
       transform="matrix(1,0,0,-1,420.39,111.7)"
       id="text116"><tspan
         style="fill:#000000;fill-opacity:1;fill-rule:nonzero;stroke:none;font-family:Arial;font-variant:normal;font-weight:bold;font-size:7.99992;writing-mode:lr;-inkscape-font-specification:Arial Bold"
         x="0 2.222568 6.671736"
         y="0"
         sodipodi:role="line"
         id="tspan118">isA</tspan></text>
<path
       d="m 269.91,10.638 -194.215,0"
       style="fill:none;stroke:#000000;stroke-opacity:1;stroke-width:1.2;stroke-linecap:round;stroke-linejoin:round;stroke-miterlimit:10;stroke-dasharray:none"
       id="path120" /><path
       d="m 266.19,6.9185 3.72,3.7195 -3.72,3.72"
       style="fill:none;stroke:#000000;stroke-opacity:1;stroke-width:1.2;stroke-linecap:round;stroke-linejoin:round;stroke-miterlimit:10;stroke-dasharray:none"
       id="path122" /><path
       d="m 163.91,5.8384 17.797,0 0,9.5999 -17.797,0 0,-9.5999 z"
       style="fill:#ffffff;fill-opacity:1;fill-rule:evenodd;stroke:none"
       id="path124" /><text
       transform="matrix(1,0,0,-1,163.91,8.2383)"
       id="text126"><tspan
         style="fill:#000000;fill-opacity:1;fill-rule:nonzero;stroke:none;font-family:Arial;font-variant:normal;font-weight:bold;font-size:7.99992;writing-mode:lr;-inkscape-font-specification:Arial Bold"
         x="0 4.449168 8.898336 13.347504"
         y="0"
         sodipodi:role="line"
         id="tspan128">says</tspan></text>
<path
       d="m 110.55,68.967 124.72,0 0,31.901 -124.72,0 0,-31.901 z"
       style="fill:#d9d9d9;fill-opacity:1;fill-rule:evenodd;stroke:none"
       id="path130" /><g
       id="g132"><path
         d="m 110.55,68.967 124.72,0 0,31.901 -124.72,0 0,-31.901 z"
         style="fill:none;stroke:#000000;stroke-opacity:1;stroke-width:0.72;stroke-linecap:round;stroke-linejoin:round;stroke-miterlimit:10;stroke-dasharray:10.8,6.48;stroke-dashoffset:0"
         id="path134" /></g><text
       transform="matrix(1,0,0,-1,114.55,88.217)"
       id="text136"><tspan
         style="fill:#000000;fill-opacity:1;fill-rule:nonzero;stroke:none;font-family:Arial;font-variant:normal;font-weight:bold;font-size:11.00016;writing-mode:lr;-inkscape-font-specification:Arial Bold"
         x="0 6.719256 13.438512 23.219712 29.33748 32.393592"
         y="0"
         sodipodi:role="line"
         id="tspan138">domain</tspan></text>
<text
       transform="matrix(1,0,0,-1,153.66,88.217)"
       id="text140"><tspan
         style="fill:#000000;fill-opacity:1;fill-rule:nonzero;stroke:none;font-family:Arial;font-variant:normal;font-weight:bold;font-size:11.00016;writing-mode:lr;-inkscape-font-specification:Arial Bold"
         x="0 3.663144"
         y="0"
         sodipodi:role="line"
         id="tspan142">: </tspan></text>
<text
       transform="matrix(1,0,0,-1,160.38,88.217)"
       id="text144"><tspan
         style="fill:#000000;fill-opacity:1;fill-rule:nonzero;stroke:none;font-family:Arial;font-variant:normal;font-weight:normal;font-size:11.00016;writing-mode:lr;-inkscape-font-specification:Arial"
         x="0 7.94376 14.061528 20.179296 23.84244 29.960208 35.460216 38.516328 44.634096"
         y="0"
         sodipodi:role="line"
         id="tspan146">Character</tspan></text>
<text
       transform="matrix(1,0,0,-1,114.55,75.017)"
       id="text148"><tspan
         style="fill:#000000;fill-opacity:1;fill-rule:nonzero;stroke:none;font-family:Arial;font-variant:normal;font-weight:bold;font-size:11.00016;writing-mode:lr;-inkscape-font-specification:Arial Bold"
         x="0 4.280832 10.3986 17.117856 23.837112"
         y="0"
         sodipodi:role="line"
         id="tspan150">range</tspan></text>
<text
       transform="matrix(1,0,0,-1,144.51,75.017)"
       id="text152"><tspan
         style="fill:#000000;fill-opacity:1;fill-rule:nonzero;stroke:none;font-family:Arial;font-variant:normal;font-weight:bold;font-size:11.00016;writing-mode:lr;-inkscape-font-specification:Arial Bold"
         x="0 3.663144"
         y="0"
         sodipodi:role="line"
         id="tspan154">: </tspan></text>
<text
       transform="matrix(1,0,0,-1,151.23,75.017)"
       id="text156"><tspan
         style="fill:#000000;fill-opacity:1;fill-rule:nonzero;stroke:none;font-family:Arial;font-variant:normal;font-weight:normal;font-size:11.00016;writing-mode:lr;-inkscape-font-specification:Arial"
         x="0 7.3368 13.454568 19.572336 25.690104 31.190112 37.30788 44.64468 50.762448 53.206344 55.65024 61.768008 67.885776"
         y="0"
         sodipodi:role="line"
         id="tspan158">SpeechBalloon</tspan></text>
<g
       id="g160"><path
         d="m 172.91,68.967 0,-47.829"
         style="fill:none;stroke:#000000;stroke-opacity:1;stroke-width:0.24;stroke-linecap:round;stroke-linejoin:round;stroke-miterlimit:10;stroke-dasharray:1.68,1.2;stroke-dashoffset:0"
         id="path162" /></g><path
       d="m 155.13,40.252 35.574,0 0,9.5999 -35.574,0 0,-9.5999 z"
       style="fill:#ffffff;fill-opacity:1;fill-rule:evenodd;stroke:none"
       id="path164" /><text
       transform="matrix(1,0,0,-1,155.13,42.652)"
       id="text166"><tspan
         style="font-size:7.99991989px;font-variant:normal;font-weight:normal;writing-mode:lr-tb;fill:#000000;fill-opacity:1;fill-rule:nonzero;stroke:none;font-family:Arial;-inkscape-font-specification:Arial"
         x="0 4.4491682 7.1133838 11.562552"
         y="0"
         sodipodi:role="line"
         id="tspan168">properties</tspan></text>
<path
       d="m 466.3,85.481 c 0,9.272 -17.77,16.789 -39.69,16.789 -21.91,0 -39.68,-7.517 -39.68,-16.789 0,-9.273 17.77,-16.79 39.68,-16.79 21.92,0 39.69,7.517 39.69,16.79 z"
       style="fill:#ffffff;fill-opacity:1;fill-rule:evenodd;stroke:none"
       id="path170" /><path
       d="m 466.3,85.481 c 0,9.272 -17.77,16.789 -39.69,16.789 -21.91,0 -39.68,-7.517 -39.68,-16.789 0,-9.273 17.77,-16.79 39.68,-16.79 21.92,0 39.69,7.517 39.69,16.79 z"
       style="fill:none;stroke:#000000;stroke-opacity:1;stroke-width:1.2;stroke-linecap:round;stroke-linejoin:round;stroke-miterlimit:10;stroke-dasharray:none"
       id="path172" /><text
       transform="matrix(1,0,0,-1,400.6,89.081)"
       id="text174"><tspan
         style="fill:#000000;fill-opacity:1;fill-rule:nonzero;stroke:none;font-family:Arial;font-variant:normal;font-weight:bold;font-size:12.00024;writing-mode:lr;-inkscape-font-specification:Arial Bold"
         x="0 8.66592 15.339816 20.009808 24.6798 31.353696 35.349696 38.6838 45.357696"
         y="0"
         sodipodi:role="line"
         id="tspan176">Narrative</tspan></text>
<text
       transform="matrix(1,0,0,-1,401.94,74.681)"
       id="text178"><tspan
         style="fill:#000000;fill-opacity:1;fill-rule:nonzero;stroke:none;font-family:Arial;font-variant:normal;font-weight:bold;font-size:12.00024;writing-mode:lr;-inkscape-font-specification:Arial Bold"
         x="0 7.33032 14.004216 20.678112 24.674112 32.004432 35.338536 42.668856"
         y="0"
         sodipodi:role="line"
         id="tspan180">TextLine</tspan></text>
<path
       d="m 426.61,35.491 0,22.97"
       style="fill:none;stroke:#000000;stroke-opacity:1;stroke-width:1.2;stroke-linecap:round;stroke-linejoin:round;stroke-miterlimit:10;stroke-dasharray:none"
       id="path182" /><path
       d="m 422.89,57.531 3.72,11.16 3.72,-11.16 -7.44,0 z"
       style="fill:#000000;fill-opacity:1;fill-rule:evenodd;stroke:none"
       id="path184" /><path
       d="m 420.39,42.683 12.449,0 0,9.5999 -12.449,0 0,-9.5999 z"
       style="fill:#ffffff;fill-opacity:1;fill-rule:evenodd;stroke:none"
       id="path186" /><text
       transform="matrix(1,0,0,-1,420.39,45.083)"
       id="text188"><tspan
         style="fill:#000000;fill-opacity:1;fill-rule:nonzero;stroke:none;font-family:Arial;font-variant:normal;font-weight:bold;font-size:7.99992;writing-mode:lr;-inkscape-font-specification:Arial Bold"
         x="0 2.222568 6.671736"
         y="0"
         sodipodi:role="line"
         id="tspan190">isA</tspan></text>
</g></svg>